<?xml version="1.0" encoding="UTF-8"?>
<svg width="300px" height="60px" viewBox="0 0 300 60" version="1.1" xmlns="http://www.w3.org/2000/svg" xmlns:xlink="http://www.w3.org/1999/xlink">
    <title>forbes</title>
    <g id="forbes" stroke="none" stroke-width="1" fill="none" fill-rule="evenodd">
        <path d="M58.0105417,5.59304111 L63.0036798,5.59304111 C66.0444733,5.14261786 69.1498843,5.53863515 71.9825685,6.73807314 C75.536369,8.88789986 78.1140324,12.3489033 79.1656795,16.3827661 C79.9102703,18.4966714 79.9102703,18.4966714 81.706048,17.7479966 L83.1076306,17.7479966 L83.1076306,1.01291296 L36.1108132,1.01291296 L36.1108132,3.96357244 L38.0379893,3.96357244 C39.7342154,3.95176079 41.3445568,4.71277258 42.417935,6.03343804 C44.2137127,8.94005783 44.5203089,12.1989952 44.5203089,29.1542773 C44.5203089,47.166512 44.1261138,51.5704814 42.417935,53.8165058 C41.5636283,54.9862594 40.2249205,55.6998284 38.78258,55.7542523 C36.1108132,56.2386889 36.1108132,56.1946492 36.1108132,57.3837209 C35.9630623,57.7813345 35.9630623,58.2192189 36.1108132,58.6168324 L65.7630456,58.6168324 C66.1610389,57.8279241 66.1610389,56.8954781 65.7630456,56.1065698 C65.0448579,55.9056562 64.3128682,55.7584553 63.5730728,55.6661729 C62.7727569,55.5704791 61.9816746,55.4084488 61.2079021,55.1817363 C58.9533856,53.5267826 57.73729,50.7964971 58.0105417,48.0032662 C57.5725471,45.0966464 57.3535499,39.7678435 57.3535499,35.3638741 L57.3535499,31.8847383 L59.1055281,31.8847383 C61.2882921,31.8175894 63.4697885,32.0547204 65.5878478,32.5893734 C67.6422753,33.8658824 69.0233373,35.9972789 69.3546011,38.4026129 L69.7487962,39.7678435 L72.4205631,39.7678435 L72.4205631,20.2582591 L69.9677935,20.2582591 L69.5735984,22.151966 C69.2372781,24.615697 67.7582747,26.7728317 65.5878478,27.9652055 C64.5513541,28.2753569 63.4593589,28.3505614 62.3904874,28.185404 L57.3535499,28.185404 L57.3535499,23.4291171 C57.3535499,18.4966714 57.6163466,8.10330365 57.7915444,6.47383498 L58.0105417,5.59304111 Z M262.992001,40.5165182 C260.921693,37.1660296 257.692539,34.7034309 253.925513,33.6022863 C251.037639,32.694625 248.368151,31.1951111 246.085411,29.198317 C245.042463,28.1840076 244.566794,26.7161884 244.815226,25.2787842 C244.81861,23.8901612 245.369964,22.5596532 246.348207,21.5794499 C247.699142,20.1567651 249.719677,19.5980704 251.604142,20.12614 C255.505032,21.2439851 258.481825,24.4231186 259.356646,28.4056025 C260.057437,30.3873887 260.145036,30.3873887 261.415221,29.8589124 L262.203611,29.5506345 L262.203611,18.5847508 L261.634218,18.3205126 C257.322174,16.7977495 252.748148,16.1685549 248.187785,16.4708455 C244.26055,16.5708972 240.511901,18.1414015 237.675915,20.8748148 C235.072448,23.3253086 233.677907,26.806608 233.865362,30.3873887 C233.889953,33.0919702 234.957741,35.6813474 236.843725,37.6098985 C238.927952,39.6709522 241.48538,41.1835728 244.289633,42.0138678 C251.078549,44.7002892 253.049524,46.4178372 253.049524,49.5446555 C253.109481,52.2604891 251.290839,54.6559783 248.669579,55.3138553 C247.140234,55.6516832 245.556181,55.6516832 244.026836,55.3138553 C239.96421,53.7284051 236.913524,50.2673061 235.836338,46.02148 L235.266945,44.6122098 L234.478554,44.6122098 C234.101778,44.6403557 233.732008,44.7295872 233.383568,44.8764479 L232.945573,44.8764479 L232.945573,57.3837209 L233.690164,57.3837209 C236.649212,58.3734806 239.702267,59.0523788 242.800451,59.4095469 L247.180397,59.4095469 C249.079889,59.5497108 250.989339,59.3711134 252.830527,58.8810705 C257.586943,57.998531 261.521216,54.6461139 263.167199,50.0731318 C263.689882,48.8179135 263.957923,47.4703569 263.955589,46.1095594 C264.128172,44.1924896 263.795842,42.2635159 262.992001,40.5165182 L262.992001,40.5165182 Z M221.732912,17.7479966 C216.424313,15.5069529 210.416714,15.651157 205.220517,18.1443538 C200.337173,20.5461141 196.693161,24.9141135 195.190441,30.1671902 C194.243044,33.0009036 193.841682,35.9902589 194.007856,38.975129 C193.976486,40.5991508 194.108556,42.2221991 194.402051,43.8194953 C195.850633,51.8629704 202.122449,58.1516201 210.126056,59.5857056 C212.670966,59.9080927 215.246052,59.9080927 217.790961,59.5857056 C220.43178,59.1177016 222.959174,58.1460447 225.236869,56.7231255 C227.120913,55.6611241 228.715537,54.1485106 229.879611,52.3191562 C229.728662,51.7391704 229.349046,51.2461436 228.828424,50.9539257 C228.328525,51.1359364 227.856677,51.3879806 227.426842,51.7026005 C225.24831,53.1462308 222.675833,53.8698593 220.068533,53.7724661 C216.56405,54.0106585 213.138681,52.6523995 210.739249,50.0731318 C209.822679,49.2171194 209.066126,48.202849 208.505476,47.0784326 C207.14443,44.3406143 206.411059,41.3308477 206.359303,38.2704939 L206.359303,36.5529458 L230.624202,36.5529458 L230.624202,35.6721519 C230.677775,34.7921816 230.677775,33.9097406 230.624202,33.0297703 C230.606482,26.6995511 227.212164,20.8656168 221.732912,17.7479966 Z M209.512864,32.9857306 L206.446902,32.9857306 L206.446902,30.3873887 C207.454289,23.7373949 209.950858,19.7738225 213.01682,19.7738225 C216.082782,19.7738225 217.396766,23.6933552 217.966159,30.8718253 L217.966159,32.8976512 L215.338192,32.8976512 L209.512864,32.9857306 Z M146.529245,16.2946867 C145.015801,16.2356702 143.511284,16.5533519 142.149299,17.2195203 C139.189036,18.6650219 136.797999,21.0691731 135.360383,24.0456728 L134.79099,25.1026254 L134.79099,16.2946867 L134.571993,16.2946867 C134.046399,16.2946867 117.8406,19.553624 117.315007,19.7738225 C116.789413,19.994021 116.964611,20.0380607 116.964611,20.8307751 C116.964611,21.6234896 116.964611,21.7556087 117.315007,21.7996484 L119.023185,22.151966 C119.992576,22.1758748 120.897131,22.6468743 121.475955,23.4291171 C122.570942,24.882427 122.789939,27.4367292 122.789939,38.3145336 C123.00628,43.2115731 122.801119,48.1182512 122.176746,52.9797516 C121.875512,54.4820712 120.664016,55.6295954 119.154584,55.8423317 L117.665402,56.1506095 L117.096009,56.1506095 L117.096009,57.3837209 C116.937125,57.7944505 116.937125,58.2501426 117.096009,58.6608721 L141.579906,58.6608721 L141.579906,57.3837209 C141.664851,56.9622879 141.664851,56.5280029 141.579906,56.1065698 C140.105751,56.0488012 138.639806,55.857183 137.19996,55.5340538 C135.594949,54.6899167 134.672281,52.9394859 134.878589,51.1300844 C134.528193,48.5757822 134.352995,41.0890343 134.440594,35.3638741 C134.528193,29.6387139 134.440594,29.2863963 134.922388,28.8900391 C136.388023,27.760127 138.201658,27.1834385 140.046925,27.2605704 C141.786274,27.298709 143.494021,27.7355187 145.040063,28.5377215 C145.576015,28.8369744 146.150985,29.0593297 146.748242,29.198317 C146.748242,29.198317 151.128188,18.5407111 151.128188,18.0562744 C149.989474,16.7258011 148.259731,16.0632371 146.529245,16.2946867 L146.529245,16.2946867 Z M117.00841,34.7913581 C116.698238,28.4060522 113.337017,22.5654794 107.985722,19.1132271 C101.629719,15.6654846 94.0241285,15.4530594 87.4875764,18.5407111 C82.930204,20.9570812 79.4892242,25.0646696 77.8954952,29.9910314 C76.249364,35.5066152 76.249364,41.3866901 77.8954952,46.9022738 C78.7584617,49.916667 80.3714278,52.6601078 82.5820372,54.8734584 C85.3352425,57.574657 88.8853433,59.305359 92.6997118,59.8059041 C95.1482082,60.0117807 97.6095241,60.0117807 100.058021,59.8059041 C100.959033,59.6680663 101.851172,59.4768954 102.729787,59.2333881 C110.007706,57.1863335 115.452761,51.0935537 116.701814,43.5992968 C117.139075,40.6848047 117.241948,37.7294568 117.00841,34.7913581 Z M98.7878363,56.8112049 C94.4078906,58.1323957 91.1229313,53.8605455 90.0279449,44.8764479 C89.625824,40.1728738 89.625824,35.4432803 90.0279449,30.7397062 C90.903934,23.5171965 93.1377063,19.8619019 96.5978634,19.8619019 C98.014376,19.7736334 99.3856205,20.3809468 100.277018,21.4913705 C103.211581,24.44203 104.656964,30.2993093 104.656964,39.107248 C105.021397,44.0920389 104.24217,49.0943893 102.379392,53.7284264 C101.556874,55.07994 100.28423,56.0942763 98.7878363,56.5910065 L98.7878363,56.8112049 L98.7878363,56.8112049 Z M177.626859,17.1754806 C176.39097,17.0155741 175.139795,17.0155741 173.903905,17.1754806 C171.531513,17.1734505 169.186393,17.6840965 167.02739,18.6728301 L165.669607,19.2453462 L165.669607,9.68873262 C165.906896,6.46356165 165.906896,3.22517098 165.669607,0 C165.144014,0 148.412621,3.21489764 148.149824,3.34701672 C148.020646,3.67216277 148.020646,4.03478363 148.149824,4.35992968 C148.149824,5.28476325 148.149824,5.24072356 150.1208,5.68112049 C150.67419,5.8059052 151.20574,6.01375325 151.69758,6.29767621 C152.552533,7.10606587 153.121566,8.17305605 153.31816,9.33641507 C153.816856,12.6879357 153.97827,16.0814676 153.799954,19.4655446 L153.799954,58.1323957 L154.98254,58.3966339 C156.734518,58.7929911 161.683857,59.6297453 163.304437,59.8059041 C166.540487,60.0646986 169.791866,60.0646986 173.027916,59.8059041 C180.347994,59.0541117 186.653171,54.2908159 189.408913,47.4307502 C190.215041,45.2702962 190.773444,43.0244348 191.073292,40.7367167 C191.334008,37.6378904 191.231101,34.5189796 190.766696,31.4443413 C189.804127,24.384231 184.553779,18.6827535 177.626859,17.1754806 L177.626859,17.1754806 Z M166.151401,56.0625301 C166.151401,55.4900141 165.713407,36.2006283 165.801006,28.4936819 L165.801006,22.4602438 L167.07119,22.151966 C167.928203,22.0285037 168.798344,22.0285037 169.655358,22.151966 C170.603145,22.0550665 171.556511,22.2715235 172.370924,22.7685217 C175.684942,25.0682562 177.767294,28.7688787 178.021054,32.8095718 C178.340129,36.0164654 178.340129,39.2473712 178.021054,42.4542648 C177.758902,47.1152186 175.972786,51.5585545 172.940317,55.0936569 C172.07962,55.9156689 170.998697,56.4667483 169.830556,56.6790858 C168.946602,56.8336669 168.042743,56.8336669 167.158789,56.6790858 C166.326599,56.6790858 166.326599,56.4148477 166.326599,56.0625301 L166.326599,56.0625301 L166.151401,56.0625301 Z" id="Shape" fill="#000000" fill-rule="nonzero"></path>
    </g>
</svg>