<?xml version="1.0" encoding="UTF-8"?>
<svg width="300px" height="60px" viewBox="0 0 300 60" version="1.1" xmlns="http://www.w3.org/2000/svg" xmlns:xlink="http://www.w3.org/1999/xlink">
    <title>mens-health</title>
    <g id="mens-health" stroke="none" stroke-width="1" fill="none" fill-rule="evenodd">
        <path d="M109.937867,13.1340635 L112.100155,13.1340635 L112.100155,19.4249145 L114.803615,19.4249145 L117.290926,9.44643402 L117.290926,5.43400408 L109.937867,5.43400408 L109.937867,13.1340635 Z M77.0656485,21.7025326 C78.6875644,21.7025326 79.444085,23.0041433 79.444085,33.1998266 L74.1460396,33.1998266 C74.3621883,23.0041433 75.2271835,21.7025326 77.0656485,21.7025326 L77.0656485,21.7025326 Z M86.905619,42.2018982 L83.445238,42.2018982 L83.445238,43.3951083 C83.445238,48.3843486 82.0390705,50.7703673 79.1194616,50.7703673 C75.7675553,50.7703673 74.1456393,48.6007484 74.1456393,37.2122565 L74.1456393,36.3450513 L87.3375162,36.3450513 C87.3375162,23.0041433 84.4179073,17.7981018 77.0652482,17.7981018 C69.7121888,17.7981018 64.9541149,25.390162 64.9541149,37.1046588 C64.9541149,48.7095505 69.4956398,55 77.2813969,55 C83.9856099,55 86.9052187,51.2039699 86.9052187,43.178307 L86.9052187,42.2018982 L86.905619,42.2018982 Z M178.736405,21.7025326 C180.358321,21.7025326 181.115241,23.0041433 181.115241,33.1998266 L176.115001,33.1998266 C176.33115,23.0041433 176.89794,21.7025326 178.736405,21.7025326 L178.736405,21.7025326 Z M188.576375,42.2018982 L185.115994,42.2018982 L185.115994,43.3951083 C185.115994,48.3843486 183.710227,50.7703673 180.790618,50.7703673 C177.438311,50.7703673 176.114601,48.6007484 176.114601,37.2122565 L176.114601,36.3450513 L189.008673,36.3450513 C189.008673,23.0041433 186.089064,17.7981018 178.736004,17.7981018 C171.382945,17.7981018 166.625271,25.390162 166.625271,37.1042573 C166.625271,48.7095505 171.167197,55 178.952553,55 C185.656766,55 188.576375,51.2039699 188.576375,43.178307 L188.576375,42.2018982 Z M236.370861,55 C241.237009,55 243.291623,51.9631759 243.291623,47.6243396 L243.291623,42.2018982 L240.047791,42.2018982 L240.047791,47.6243396 C240.047791,49.9027606 239.723168,50.6611637 238.642024,50.6611637 C237.668554,50.6611637 237.344331,50.0103583 237.344331,47.9495415 L237.344331,21.9193339 L243.291623,21.9193339 L243.291623,18.5573078 L237.452405,18.5573078 L237.452405,8.4704267 L234.100099,8.4704267 L229.125876,18.9909104 L226.206267,18.9909104 L226.206267,21.8109332 L228.801253,21.8109332 L228.801253,45.8887247 C228.801653,52.1799772 229.883197,55 236.370861,55 L236.370861,55 Z M211.284,27.4509788 C211.284,20.7265252 208.256717,17.9069039 201.768652,17.9069039 C195.280588,17.9069039 190.847138,22.5705407 190.847138,28.1021857 L190.847138,30.2714031 L198.308672,30.2714031 L198.308672,25.1733607 C198.308672,22.2449373 198.957518,21.1605293 200.579434,21.1605293 C202.20175,21.1605293 202.850197,22.1365366 202.850197,25.1733607 L202.850197,31.1390098 C193.010226,34.5006343 189.982543,36.9958567 189.982543,45.347123 C189.982543,51.8547752 192.577528,55 197.011379,55 C200.795983,55 202.526374,52.3967785 203.499443,50.7703673 L203.499443,54.3491946 L213.123265,54.3491946 L213.123265,51.4203697 L211.2848,51.4203697 L211.2848,27.4509788 L211.284,27.4509788 Z M267.621163,51.4203697 L267.621163,25.715364 C267.621163,20.4009218 265.242326,17.9065024 261.025025,17.9065024 C255.942728,17.9065024 253.888114,21.7025326 253.888114,21.7025326 L253.888114,5 L243.183148,6.1932101 L243.183148,9.01283142 L245.670059,9.01283142 L245.670059,51.4203697 L243.940069,51.4203697 L243.940069,54.3491946 L255.835054,54.3491946 L255.835054,51.4203697 L254.105063,51.4203697 L254.105063,28.9693909 C254.105063,25.0649601 255.186207,23.4381474 257.132346,23.4381474 C258.538113,23.4381474 259.078485,24.3057541 259.078485,26.4749715 L259.078485,51.4203697 L257.132346,51.4203697 L257.132346,54.3491946 L270,54.3491946 L270,51.4203697 L267.621163,51.4203697 Z M202.849796,34.1754324 L202.849796,45.2383208 C202.849796,48.4923477 202.20135,49.79436 200.362885,49.79436 C198.957518,49.79436 198.308271,48.6007484 198.308271,44.6967191 C198.308271,38.0802647 198.849043,36.453452 202.849796,34.1754324 L202.849796,34.1754324 Z M164.977337,51.4203697 L164.977337,8.36242753 L167.464649,8.36242753 L167.464649,5.54200324 L152.650056,5.54200324 L152.650056,8.36202605 L155.677739,8.36202605 L155.677739,28.5353868 L146.162392,28.5353868 L146.162392,8.36242753 L149.298149,8.36242753 L149.298149,5.54200324 L134.267407,5.54200324 L134.267407,8.36202605 L136.862793,8.36202605 L136.862793,51.4199682 L134.267407,51.4199682 L134.267407,54.3491946 L149.298149,54.3491946 L149.298149,51.4199682 L146.162392,51.4199682 L146.162392,31.8982158 L155.677739,31.8982158 L155.677739,51.4203697 L152.650056,51.4203697 L152.650056,54.3491946 L167.464649,54.3491946 L167.464649,51.4203697 L164.977337,51.4203697 Z M224.476277,51.4203697 L224.476277,5 L213.338613,6.1932101 L213.338613,9.01283142 L216.042073,9.01283142 L216.042073,51.4203697 L214.312083,51.4203697 L214.312083,54.3491946 L227.071662,54.3491946 L227.071662,51.4203697 L224.476277,51.4203697 Z M133.727035,44.6963176 C133.727035,33.1998266 121.400154,32.440219 121.400154,24.8477573 C121.400154,22.2449373 122.697446,20.9433265 124.75206,20.9433265 C127.887817,20.9433265 129.510134,24.0885513 129.726282,30.7042027 L132.537417,30.7042027 L132.537417,19.8585171 C132.537417,19.8585171 129.401659,17.9065024 124.643585,17.9065024 C118.912842,17.9065024 114.262843,21.1601278 114.262843,27.7761808 C114.262843,38.6222679 126.265501,40.1410814 126.265501,47.5159389 C126.265501,50.4447638 124.859734,51.8547752 122.588571,51.8547752 C119.12819,51.8547752 117.3982,48.8179511 117.182051,41.3338901 L114.370917,41.3338901 L114.370917,53.0479854 C114.370917,53.0479854 117.831298,55 122.913195,55 C129.18551,55 133.727035,51.4203697 133.727035,44.6963176 L133.727035,44.6963176 Z M63.3325992,51.4203697 L63.3325992,8.36242753 L65.6033617,8.36242753 L65.6033617,5.54200324 L52.9518566,5.54200324 L46.6803414,32.9826238 L39.9761284,5.54200324 L27,5.54200324 L27,8.36202605 L29.7034602,8.36202605 L29.7034602,51.4199682 L27,51.4199682 L27,54.3487931 L36.9480449,54.3487931 L36.9480449,51.4199682 L33.8122873,51.4199682 L33.8122873,21.1601278 L41.7061188,54.3487931 L46.2476436,54.3487931 L54.0330005,20.9433265 L54.0330005,51.4199682 L51.1133916,51.4199682 L51.1133916,54.3487931 L65.6033617,54.3487931 L65.6033617,51.4199682 L63.3325992,51.4199682 L63.3325992,51.4203697 Z M111.235159,51.4203697 L111.235159,25.715364 C111.235159,20.4009218 108.856723,17.9065024 104.747495,17.9065024 C99.6651984,17.9065024 97.6105847,21.7025326 97.6105847,21.7025326 L97.6105847,17.9065024 L86.7971444,19.0997125 L86.7971444,22.028136 L89.2844558,22.028136 L89.2844558,51.4203697 L86.6894703,51.4203697 L86.6894703,54.3491946 L99.5567238,54.3491946 L99.5567238,51.4203697 L97.8267335,51.4203697 L97.8267335,28.9693909 C97.8267335,25.0649601 98.9082776,23.4381474 100.854417,23.4381474 C102.260184,23.4381474 102.800556,24.3057541 102.800556,26.4749715 L102.800556,51.4203697 L100.854417,51.4203697 L100.854417,54.3491946 L112.96515,54.3491946 L112.96515,51.4203697 L111.235159,51.4203697 Z" id="Shape" fill="#000000" fill-rule="nonzero"></path>
    </g>
</svg>