<?xml version="1.0" encoding="UTF-8"?>
<svg width="300px" height="60px" viewBox="0 0 300 60" version="1.1" xmlns="http://www.w3.org/2000/svg" xmlns:xlink="http://www.w3.org/1999/xlink">
    <title>vogue</title>
    <g id="vogue" stroke="none" stroke-width="1" fill="none" fill-rule="evenodd">
        <path d="M126.827456,21.4635405 C127.08143,22.425465 129.954759,34.1490399 124.925051,44.9118903 C124.433937,45.9614152 118.726,59.7180396 103.221759,59.7602798 C87.717519,59.7180396 82.0095823,45.9614152 81.5184684,44.9118903 C76.4877975,34.1490399 79.3620886,22.425465 79.6160633,21.4637805 C85.7920253,0.183120857 103.165,0.479783494 103.165,0.479783494 L103.276835,0.479783494 C103.276835,0.479783494 120.651253,0.183120857 126.827215,21.4633005 L126.827456,21.4635405 Z M113.860076,51.1377594 C114.248734,50.179915 117.418848,43.8470053 117.425108,30.1285411 C117.430392,16.4110368 114.23743,10.0790872 113.849734,9.12028271 C110.900165,0.179280839 103.360772,0.871204079 103.360772,0.871204079 L103.082747,0.871204079 C103.082747,0.871204079 95.5421519,0.179280839 92.5937848,9.1200427 C92.2051266,10.0788472 89.0350127,16.4107968 89.0287529,30.1283011 C89.0234684,43.8467653 92.2166709,50.179675 92.6050886,51.1375194 C95.5536962,60.0775613 103.093329,59.3868381 103.093329,59.3868381 L103.371114,59.3868381 C103.371114,59.3868381 110.911709,60.0775613 113.860076,51.1375194 L113.860076,51.1377594 Z M253.844139,55.1800984 C263.679165,49.1632702 263.875658,37.2803346 263.875658,37.2803346 L264,37.2803346 L264,58.5329141 L222.89362,58.5329141 L222.89362,58.1261122 L227.299937,58.1261122 L227.299937,1.58400742 L219.636924,1.58400742 L219.636924,42.8219605 C219.636924,60.5719636 205.145456,59.9978809 202.739671,59.9978809 C183.904658,59.9978809 183.157405,47.9767046 183.157405,42.7372401 L183.157405,1.61928758 L178.620253,1.61928758 L178.620253,1.21248568 L197.652722,1.21248568 L197.652722,1.62528761 L193.116772,1.62528761 L193.116772,46.9999001 C193.116772,50.4477562 193.878696,52.0773638 194.322911,53.0798485 C197.621456,59.7864399 203.851772,59.3167577 204.581228,59.3167577 C216.199367,59.3167577 219.192709,50.401436 219.192709,41.9332364 L219.192709,1.6233676 L214.625253,1.6233676 L214.625253,1.20000562 L262.270278,1.20000562 L262.270278,19.5015313 L262.091582,19.5015313 C262.091582,14.0175056 258.232658,9.04756236 257.59219,8.2008384 C253.330899,1.80816847 244.937228,1.57488737 244.937228,1.57488737 L237.246797,1.57488737 L237.246797,28.8855753 C244.199354,28.8855753 245.674139,27.0670867 246.249911,26.6293247 C251.31257,22.5238655 250.351266,17.0388798 250.351266,17.0388798 L250.735835,17.0388798 L250.735835,41.3910738 L250.318797,41.3910738 C250.318797,34.7464027 246.089975,31.9604697 244.969696,31.0477454 C242.405899,28.9484555 237.247038,29.3245373 237.247038,29.3245373 L237.247038,58.1148321 L243.591114,58.1148321 C249.870494,57.7997106 253.363367,55.4608997 253.843899,55.1800984 L253.844139,55.1800984 Z M63.3823671,59.5202787 L41.0520759,1.60584752 L36,1.60584752 L36,1.20000562 L55.7511013,1.20000562 L55.7479747,1.61520756 L50.9640633,1.61520756 L67.6285063,43.5122037 L80.1062152,1.6224076 L75.501,1.6224076 L75.501,1.20312563 L85.0632911,1.20312563 L85.0632911,1.6224076 L80.5499494,1.6224076 L63.3823671,59.5202787 Z M164.286076,2.5840921 C169.896608,3.87001812 171.75981,0 171.75981,0 L171.75981,20.5539362 C169.681835,11.2656528 163.884671,5.22266445 163.375278,4.62818167 C160.671506,1.59504747 157.904962,0.625442929 154.819987,0.625442929 C147.955937,0.781923661 145.825532,7.38027456 145.348608,8.44347954 C142.48562,15.5105526 142.454114,26.9257261 142.454114,27.9250908 C142.199658,39.2461838 144.331025,47.4405421 144.68,48.7840684 C146.525405,55.8511415 149.642127,57.6336299 150.151519,58.0085116 C154.37457,60.5412435 159.174114,58.7988353 159.749405,58.6029944 C166.143025,55.9769021 165.98357,48.5966276 165.98357,48.5966276 L165.98357,35.6814471 L161.690291,35.6814471 L161.690291,35.2115249 L179.341772,35.2115249 L179.341772,35.6495269 L175.462405,35.6495269 L175.462405,58.6968348 C172.408696,53.4741704 166.302241,56.5085046 165.189418,56.9772268 C159.113266,59.8538803 157.109608,59.6364392 156.345759,59.6983595 C148.56057,60.3535626 143.153266,55.6015404 142.709051,55.2266586 C132.975759,47.0635004 131.957937,35.5873666 131.893962,34.6499222 C130.621684,20.8589777 136.792114,12.5081386 137.078316,12.0394164 C145.157886,0.563522639 152.816329,0.219361027 154.152342,0.156720734 C157.872494,-0.156720734 162.950785,2.32225087 164.286076,2.5840921 Z" id="Shape" fill="#000000" fill-rule="nonzero"></path>
    </g>
</svg>