<?xml version="1.0" encoding="UTF-8"?>
<svg width="300px" height="60px" viewBox="0 0 300 60" version="1.1" xmlns="http://www.w3.org/2000/svg" xmlns:xlink="http://www.w3.org/1999/xlink">
    <title>yahoo</title>
    <g id="yahoo" stroke="none" stroke-width="1" fill="none" fill-rule="evenodd">
        <g id="Group" transform="translate(42.000000, -0.000000)" fill="#000000" fill-rule="nonzero">
            <polygon id="path1139" points="0 14.6062071 12.8505808 14.6062071 20.3333134 33.7813475 27.9131785 14.6062071 40.4253217 14.6062071 21.5848044 60 8.99336645 60 14.1506546 47.9713612"></polygon>
            <path d="M53.4597019,13.8428588 C43.804457,13.8428588 37.7006766,22.5162685 37.7006766,31.1536054 C37.7006766,40.8731466 44.3927145,48.579008 53.2765312,48.579008 C59.90352,48.579008 62.4022243,44.5348073 62.4022243,44.5348073 L62.4022243,47.6851657 L73.6103997,47.6851657 L73.6103997,14.6064075 L62.4022243,14.6064075 L62.4022243,17.6135672 C62.4022243,17.6135672 59.6144814,13.8428588 53.4597019,13.8428588 Z M55.8437378,24.4730708 C60.2987449,24.4730708 62.5976897,28.0039627 62.5976897,31.1899484 C62.5976897,34.6206592 60.1347101,37.9873903 55.8437378,37.9873903 C52.2874076,37.9873903 49.0736052,35.0763446 49.0736052,31.3359536 C49.0736052,27.5426367 51.6586497,24.4730708 55.8437378,24.4730708 Z" id="path1141"></path>
            <path d="M77.4704387,47.6849654 L77.4704387,-1.16204026e-14 L89.1935036,-1.16204026e-14 L89.1935036,17.7280977 C89.1935036,17.7280977 91.9780219,13.8469515 97.8098014,13.8469515 C104.943287,13.8469515 109.122726,19.1706745 109.122726,26.7780438 L109.122726,47.6849654 L97.48543,47.6849654 L97.48543,29.6420063 C97.48543,27.0675051 96.2611161,24.5804406 93.4878231,24.5804406 C90.6647636,24.5804406 89.1935036,27.1051947 89.1935036,29.6420063 L89.1935036,47.6849654 L77.4704387,47.6849654 Z" id="path1145"></path>
            <path d="M129.11014,13.8467741 C118.053076,13.8467741 111.469127,22.2683354 111.469127,31.2912184 C111.469127,41.5594095 119.440797,48.579008 129.152012,48.579008 C138.564561,48.579008 146.800848,41.8779679 146.800848,31.4634859 C146.800848,20.0681548 138.177204,13.8467741 129.11014,13.8467741 Z M129.215722,24.5704171 C133.121473,24.5704171 135.823905,27.828803 135.823905,31.3035042 C135.823905,34.2671606 133.305728,37.9225217 129.215722,37.9225217 C125.468058,37.9225217 122.655562,34.9114085 122.655562,31.271085 C122.655562,27.7642787 124.993873,24.5704171 129.215722,24.5704171 Z" id="path1147"></path>
            <path d="M166.330911,13.8467741 C155.273857,13.8467741 148.6899,22.2683354 148.6899,31.2912184 C148.6899,41.5594095 156.661573,48.579008 166.372787,48.579008 C175.785336,48.579008 184.021623,41.8779679 184.021623,31.4634859 C184.021623,20.0681548 175.39799,13.8467741 166.330911,13.8467741 Z M166.436493,24.5704171 C170.342234,24.5704171 173.044678,27.828803 173.044678,31.3035042 C173.044678,34.2671606 170.52649,37.9225217 166.436493,37.9225217 C162.68882,37.9225217 159.876332,34.9114085 159.876332,31.271085 C159.876332,27.7642787 162.214642,24.5704171 166.436493,24.5704171 Z" id="path1153"></path>
            <ellipse id="path1155" cx="193.271967" cy="40.5899559" rx="7.7845584" ry="7.79729006"></ellipse>
            <polygon id="path1157" points="203.614462 29.9284021 189.600229 29.9284021 202.038093 -5.8102013e-15 216 -5.8102013e-15"></polygon>
        </g>
    </g>
</svg>