<svg width="230" height="150" xmlns="http://www.w3.org/2000/svg" xmlns:xlink="http://www.w3.org/1999/xlink"><defs><path id="c" d="M.24.588h96.992v50.086H.24z"/><path id="e" d="M.759.264h40.618v39.763H.76z"/><rect id="a" x="0" y="0" width="100" height="106" rx="6"/></defs><g fill="none" fill-rule="evenodd"><g transform="translate(85.522 15)"><mask id="b" fill="#fff"><use xlink:href="#a"/></mask><use fill="#F5F5F2" xlink:href="#a"/><path d="M65.268 45.608L46.87 64.68a.954.954 0 01-1.334.054l-10.21-9.584a.954.954 0 111.278-1.415l9.517 8.958L63.879 44.3a.954.954 0 011.39 1.308h-.001z" stroke="#96BF53" stroke-width="6.079" fill="#96BF53" fill-rule="nonzero" mask="url(#b)"/><path fill="#219651" mask="url(#b)" d="M0 0h100v20H0z"/><circle fill="#FFF" mask="url(#b)" cx="85" cy="10" r="3"/><circle fill="#FFF" mask="url(#b)" cx="15" cy="10" r="3"/></g><g fill-rule="nonzero"><path d="M18.216 70.589c-6.245 4.574-8.194 12.576-4.338 17.844.488.669 1.089 1.29 1.784 1.857a2.095 2.095 0 01.326 2.912c-3.8 4.85-4.261 10.966-1.153 15.218 1.694 2.315 4.218 3.806 7.305 4.31a2.092 2.092 0 011.45 3.148c-3.031 4.992-3.063 10.619-.086 14.687 3.16 4.313 9.037 5.928 14.98 4.105a2.078 2.078 0 011.77.259c.52.343.861.91.922 1.535.174 1.751.757 3.313 1.737 4.65 3.512 4.803 11.01 5.304 16.718 1.127.256-.19.485-.4.716-.606l.234-.211a2.08 2.08 0 011.629-.53 2.12 2.12 0 011.483.828l4.575 6.25-.034.024 4.698-3.44-54.338-74.224c-.122.09-.252.162-.378.257z" fill="#20A357"/><path d="M73.178 109.272c3.53-5.116 3.77-11.206.614-15.52-2.982-4.071-8.355-5.737-14.025-4.355a2.086 2.086 0 01-1.901-.486 2.085 2.085 0 01-.66-1.848c.442-3.045-.234-5.981-1.904-8.266-3.113-4.252-9.082-5.662-14.854-3.501a2.092 2.092 0 01-2.68-1.194 10.175 10.175 0 00-1.229-2.257c-1.83-2.503-4.71-4.033-8.107-4.307-3.369-.27-6.84.728-9.829 2.797l54.338 74.224 3.733-2.733-4.575-6.25c-.346-.474-.365-1.16-.245-1.732.114-.577.523-1.123 1.032-1.423l.301-.18c.266-.157.553-.322.804-.51 5.708-4.178 7.499-11.486 3.987-16.284-.975-1.333-2.288-2.365-3.907-3.063a2.08 2.08 0 01-1.178-1.346 2.065 2.065 0 01.285-1.766z" fill="#219651"/><g><path d="M71.067 37.445c-7.689.926-13.304 6.953-12.525 13.43.099.822.317 1.657.643 2.492a2.09 2.09 0 01-1.144 2.699c-5.689 2.364-9.09 7.47-8.46 12.7.343 2.85 1.812 5.385 4.258 7.338a2.09 2.09 0 01-.279 3.457c-5.088 2.866-7.873 7.757-7.269 12.765.639 5.307 4.978 9.595 11.047 10.914a2.097 2.097 0 011.474 2.883c-.707 1.61-.96 3.26-.762 4.905.71 5.907 6.999 10.019 14.02 9.175.316-.039.616-.111.92-.176l.305-.068a2.076 2.076 0 011.679.338c.48.339.818.865.886 1.448l.926 7.689-.043.004 5.783-.698-11.01-91.329c-.145.013-.295.013-.449.034z" fill="#20A357"/><path d="M100.028 98.091c5.581-2.728 8.777-7.92 8.139-13.227-.604-5.007-4.472-9.098-10.092-10.67a2.092 2.092 0 01-1.093-3.294c1.877-2.438 2.729-5.329 2.39-8.139-.63-5.234-5.144-9.385-11.235-10.327a2.092 2.092 0 01-1.748-2.356c.12-.883.133-1.744.035-2.57-.373-3.08-2.134-5.826-4.957-7.728-2.805-1.889-6.318-2.716-9.937-2.377l11.008 91.328 4.592-.552-.925-7.689c-.068-.583.249-1.187.634-1.632a2.223 2.223 0 011.598-.733l.351-.008c.308-.004.638-.013.951-.051 7.02-.849 12.165-6.336 11.454-12.243-.197-1.64-.835-3.182-1.906-4.583a2.093 2.093 0 01-.368-1.748 2.052 2.052 0 011.109-1.4z" fill="#219651"/></g></g><g transform="translate(61.925 97.156)"><mask id="d" fill="#fff"><use xlink:href="#c"/></mask><path d="M37.683.588c18.972 0 24.415 10.393 38.93 16.23 14.516 5.834 20.62 11.951 20.62 20.338 0 8.388-5.775 17.42-16.002 17.42H16.734C5.848 54.576.24 43.994.24 32.142.24 20.286 15.744.588 37.683.588" fill="#D9A262" mask="url(#d)"/></g><path d="M67.11 96.222c.065.013.119.042.184.055a6.769 6.769 0 01-.108-2.633c.54-3.372 3.449-5.622 6.5-5.025 3.05.595 5.087 3.812 4.548 7.183a6.337 6.337 0 01-1.762 3.485c2.226 2.458 5.208 5.76 7.923 8.767l-7.326 7.218a422.386 422.386 0 00-6.752-8.775c-1.25 1.567-3.167 2.37-5.168 1.98-3.05-.596-5.08-3.836-4.541-7.207.539-3.371 3.452-5.645 6.501-5.048" fill="#FFF"/><g transform="translate(76.307 107.803)"><mask id="f" fill="#fff"><use xlink:href="#e"/></mask><path d="M14.917 7.852c1.558 1.785 7.586 1.529 13.472 4.53 5.885 3 14.487 14.028 12.764 24.8-1.12 7.004-11.436 13.781-11.436 13.781l-17.869-3.492S-.395 39.18 1.3 28.587c.52-3.263 2.192-6.657 5.675-8.217.543-.24 1.296-1.829.788-2.713-1.42-2.474-4.116-6.3-7.004-10.169L8.086.264c3.312 3.67 6.22 6.89 6.831 7.588" fill="#BE8038" mask="url(#f)"/></g><g fill-rule="nonzero"><path d="M191.135 56.694c-2.133-.85-4.08-2.983-6.272-3.188-2.192-.205-3.98 1.544-6.09 2.017-1.962.44-4.703-.35-6.562.724-1.654.955-2.084 3.517-3.612 5.009-1.34 1.309-4.017 1.697-5.223 3.446-1.661 2.402-1.328 6.266-2.307 9.697-.85 2.984-3.186 5.71-3.709 9.119-.538 3.189.764 6.963.393 10.275-.37 3.312-2.488 6.273-2.926 9.47-.479 3.468.671 7.265-.056 10.23-.883 3.591-5.096 13.14-6.676 15.437l.742.518 48.974-70.9c-1.947-1.35-4.643-1.04-6.676-1.854z" fill="#96BF53"/><path d="M205.47 87.016c.857-1.958 3.09-3.248 3.402-5.14.352-2.125-1.335-4.434-1.61-6.433-.297-2.16.697-4.475-.245-6.445-.942-1.969-3.642-3.088-5.163-4.803-1.483-1.649-2.129-4.297-4.061-5.647L148.81 129.46l.742.519c1.75-2.537 9.009-9.914 11.731-11.976 2.504-1.895 6.417-2.238 9.395-3.872 2.853-1.573 4.874-4.542 7.864-6.023 2.99-1.48 6.984-1.466 9.844-2.984 3.048-1.61 4.866-4.699 7.395-6.493 2.864-2.029 6.591-3.017 8.301-5.494 1.21-1.741.635-4.4 1.388-6.12v-.001z" fill="#85B53C"/><path fill="#85B53C" d="M172.553 95.087l-6.514-28.155 3.95 31.87 31.075-7.404z"/><path fill="#85B53C" d="M179.804 84.588l-5.764-24.914 3.494 28.204 27.503-6.553z"/><path fill="#85B53C" d="M187.396 73.597l-4.736-16.634 2.47 19.92 19.424-4.629z"/></g><g fill-rule="nonzero"><path d="M219.624 98.117c3.276-2.062 6.006-7.653 5.062-12.196-.22-1.031-4.208-1.49-4.157.493.061 2.385 1.649 6.92-2.265 9.371-3.913 2.45 1.36 2.332 1.36 2.332z" fill="#58A550"/><path d="M221.141 97.12c-2.855-3.82-11.046-5.586-14.933-3.099-.286.182-.64.41-1.045.658 11.145 1.711 15.183 8.156 16.956 14.326 1.614-5.543.678-9.671-.978-11.884v-.001z" fill="#58A550"/><path d="M132.807 126.883c-.403-11.878 12.757-21.66 31.111-21.021a72.156 72.156 0 0041.242-11.174c6.14.943 10.116 3.326 12.75 6.304 2.149 2.428 3.41 5.251 4.206 8.033-2.024 6.898-8.007 15.999-21.57 26.321-24.444 18.601-55.104 16.17-64.747.729-1.864-2.983-2.81-5.964-2.975-8.831l-.017-.361z" fill="#8278C8"/></g></g></svg>