<svg width="230" height="150" xmlns="http://www.w3.org/2000/svg"><g fill="none" fill-rule="evenodd"><path d="M11.093 40.547L11 17h15.698M11.093 122.962L11 146.51h15.698m192.209-23.548L219 146.51h-15.698m15.605-105.963L219 17h-15.698" stroke="#363636" stroke-width="3.925"/><g fill-rule="nonzero"><path d="M87.5 104h8.77v22H87.5v-22zm24.115 0h6.577v22h-6.577v-22zm39.462 0h6.577v22h-6.577v-22zm-10.961 0h8.769v22h-8.769v-22zm-39.462 0h6.577v22h-6.577v-22zm28.5 0h8.77v22h-8.77v-22zm35.077 0H173v22h-8.77v-22zm-87.693 0h2.193v22h-2.193v-22zm48.231 0h2.193v22h-2.193v-22zm35.078 0h2.192v22h-2.193l.001-22zm-78.924 0h4.384v22h-4.384v-22zM59 104h8.77v22H59v-22z" fill="#484B4C"/><g transform="translate(90 37)"><path d="M40.99 40.445a3.917 3.917 0 004.174-.855 3.677 3.677 0 00.797-4.083c1.546-.018 2.93-.938 3.513-2.334a3.678 3.678 0 00-.843-4.062c-.014-.014-.033-.023-.046-.038.278-.154.535-.343.763-.562a3.685 3.685 0 000-5.303L39.085 13.204 28.821 3.199a3.921 3.921 0 00-5.441 0 3.71 3.71 0 00-.577.746c-.015-.015-.024-.033-.039-.047a3.915 3.915 0 00-4.168-.822c-1.433.569-2.376 1.92-2.393 3.427a3.917 3.917 0 00-4.193.774 3.677 3.677 0 00-.873 4.071c-1.483-.173-2.935.51-3.718 1.75a3.653 3.653 0 00.074 4.023c-1.412.04-2.686.834-3.315 2.066a3.65 3.65 0 00.308 3.823 3.752 3.752 0 00-2.53 2.56 3.639 3.639 0 00.842 3.456 3.814 3.814 0 00-1.478.885 3.683 3.683 0 000 5.303c.222.209.47.39.739.54a3.71 3.71 0 00-1.86 2.748 3.657 3.657 0 001.113 3.108 3.84 3.84 0 002.336 1.063 3.669 3.669 0 00.64 4.44 3.912 3.912 0 004.556.625c.145 1.613 1.344 2.95 2.964 3.304 1.621.355 3.291-.352 4.13-1.75.76 1.26 2.205 1.97 3.695 1.814 1.49-.155 2.75-1.146 3.218-2.534a3.876 3.876 0 003.547.82 3.762 3.762 0 002.626-2.464 3.91 3.91 0 003.922.3c1.264-.614 2.079-1.856 2.12-3.231a3.913 3.913 0 004.128.073c1.273-.762 1.975-2.177 1.797-3.623v-.002z" fill="#D30032"/><path d="M47.208 18.582l1.4-5.973c-2.054.755-4.68 1.081-7.09.958l-.143-.126 3.57-3.48C47.572 7.4 51.46 6.505 54.986 7.652l.99-2.898c-4.648-1.517-9.777-.33-13.23 3.062l-3.62 3.532L39.17.36c-2.84.9-4.806 2.686-5.915 4.864L32.401 0c-.963.434-1.984 1.455-2.185 2.792-.185 2.257.869 5.154 7.59 11.709 6.722 6.555 11.045 7.697 12.143 7.53 1.177-.217 2.144-.846 3.129-1.662-2.493-.713-4.304-1.335-5.87-1.787z" fill="#20A357"/><ellipse fill="#000" opacity=".15" cx="45.77" cy="31.654" rx="2.656" ry="2.588"/><ellipse fill="#000" opacity=".15" cx="39.3" cy="31.247" rx="2.656" ry="2.588"/><ellipse fill="#000" opacity=".15" cx="31.576" cy="37.35" rx="2.656" ry="2.588"/><ellipse fill="#000" opacity=".15" cx="21.141" cy="41.01" rx="2.656" ry="2.588"/><ellipse fill="#000" opacity=".15" cx="46.24" cy="25.703" rx="2.656" ry="2.588"/><ellipse fill="#000" opacity=".15" cx="42.325" cy="36.84" rx="2.656" ry="2.588"/><ellipse fill="#000" opacity=".15" cx="36.951" cy="40.553" rx="2.656" ry="2.588"/><ellipse fill="#000" opacity=".15" cx="31.055" cy="43.657" rx="2.656" ry="2.588"/><ellipse fill="#000" opacity=".15" cx="25.211" cy="45.384" rx="2.656" ry="2.588"/><ellipse fill="#000" opacity=".15" cx="19.053" cy="47.012" rx="2.656" ry="2.588"/><ellipse fill="#000" opacity=".15" cx="12.636" cy="47.266" rx="2.656" ry="2.588"/><ellipse fill="#000" opacity=".15" cx="7.208" cy="44.418" rx="2.656" ry="2.588"/></g></g></g></svg>