<svg width="230" height="150" xmlns="http://www.w3.org/2000/svg"><g fill="none"><path d="M20.433 53.773c-5.556 5.627-6.171 13.995-1.36 18.63.638.61 1.353 1.135 2.127 1.564a2.12 2.12 0 01.826 2.887c-3.034 5.496-2.46 11.724 1.426 15.476 2.115 2.04 4.934 3.11 8.149 3.096a2.163 2.163 0 011.796.934c.404.589.485 1.337.215 1.997-2.222 5.525-1.3 11.178 2.42 14.764 3.94 3.8 10.186 4.426 15.905 1.594a2.174 2.174 0 011.843-.04c.589.26 1.029.769 1.198 1.385a9.45 9.45 0 002.556 4.396c4.386 4.225 12.083 3.466 17.165-1.689.226-.23.423-.483.623-.732l.203-.25c.379-.48.95-.773 1.564-.806a2.181 2.181 0 011.644.583l5.708 5.495-.03.03 4.179-4.287-67.813-65.364c-.115.11-.233.209-.344.337z" fill="#20A357"/><path d="M82.826 83.328c2.712-5.73 1.915-11.885-2.026-15.684-3.704-3.583-9.46-4.353-14.98-2.008a2.173 2.173 0 01-2.014-.167 2.123 2.123 0 01-.986-1.745 11.295 11.295 0 00-3.334-7.976C55.6 52 49.3 51.593 43.81 54.736a2.17 2.17 0 01-2.923-.732 10.21 10.21 0 00-1.644-2.063c-2.286-2.198-5.471-3.257-8.964-2.957a15.73 15.73 0 00-9.502 4.452L88.59 118.8l3.334-3.37-5.708-5.496a2.367 2.367 0 01.263-3.297l.274-.231a9.23 9.23 0 00.74-.645c5.083-5.158 5.657-12.797 1.271-17.025a9.663 9.663 0 00-4.49-2.418 2.147 2.147 0 01-1.427-1.153 2.108 2.108 0 01-.002-1.822l-.019-.015z" fill="#219851"/><path d="M91.924 27.193c-7.916.945-13.705 7.078-12.894 13.677.113.869.335 1.72.663 2.535.43 1.08-.092 2.3-1.174 2.748-5.856 2.407-9.357 7.606-8.709 12.933.352 2.901 1.852 5.495 4.382 7.47.559.442.859 1.13.801 1.834a2.127 2.127 0 01-1.09 1.683c-5.237 2.931-8.104 7.9-7.482 12.995.66 5.404 5.123 9.768 11.372 11.116a2.157 2.157 0 011.457 1.112c.293.567.314 1.235.058 1.819a9.39 9.39 0 00-.785 4.994c.74 6.012 7.208 10.2 14.446 9.339a8.9 8.9 0 00.948-.18l.315-.07a2.212 2.212 0 011.727.344c.501.348.833.887.914 1.488l.952 7.819h-.048l5.945-.707-11.33-92.986c-.157.015-.312.019-.468.037z" fill="#20A357"/><path d="M121.736 88.945c5.745-2.777 9.034-8.06 8.375-13.468-.619-5.1-4.6-9.262-10.39-10.863a2.145 2.145 0 01-1.454-1.385 2.114 2.114 0 01.342-1.967 11.271 11.271 0 002.46-8.284c-.648-5.33-5.308-9.555-11.576-10.507a2.132 2.132 0 01-1.8-2.396 9.962 9.962 0 00.033-2.616c-.37-3.136-2.192-5.932-5.104-7.87a15.838 15.838 0 00-10.23-2.433l11.33 92.986 4.727-.565-.956-7.825a2.396 2.396 0 012.3-2.411h.37c.32 0 .656 0 .979-.051 7.227-.861 12.524-6.452 11.79-12.457a9.47 9.47 0 00-1.96-4.668 2.114 2.114 0 01-.38-1.783 2.14 2.14 0 011.151-1.422l-.007-.015z" fill="#219651"/><path d="M179.02 56.583l1.67-1.506c2.475-2.304 4.259-4.03 5.35-5.18 1.093-1.15 2.1-2.498 3.02-4.046.922-1.547 1.37-3.032 1.345-4.454-.031-1.786-.668-3.288-1.911-4.506-1.243-1.218-2.775-1.811-4.598-1.78-2.114.038-3.85.888-5.206 2.553-1.414-1.616-3.178-2.406-5.293-2.37-1.822.033-3.333.679-4.533 1.94-1.2 1.26-1.784 2.784-1.752 4.57a8.25 8.25 0 00.655 3.079c.419.995 1.176 2.103 2.273 3.324 1.097 1.22 2.09 2.243 2.98 3.066.89.823 2.316 2.092 4.278 3.808l1.722 1.502zM53 35.219l.969-.844c1.437-1.292 2.474-2.26 3.11-2.906a12.964 12.964 0 001.765-2.282c.541-.875.812-1.718.812-2.53 0-1.022-.349-1.886-1.047-2.595C57.911 23.355 57.042 23 56 23c-1.208 0-2.208.469-3 1.406C52.208 23.47 51.208 23 50 23c-1.042 0-1.911.354-2.61 1.063-.697.708-1.046 1.572-1.046 2.593 0 .604.114 1.193.343 1.766.23.573.652 1.213 1.266 1.922a27.004 27.004 0 001.672 1.781c.5.48 1.302 1.219 2.406 2.219l.969.875zm-19.957-7.486l.562-1.155c.819-1.75 1.395-3.047 1.727-3.89.333-.843.577-1.773.734-2.79.157-1.017.076-1.9-.241-2.648-.399-.94-1.058-1.599-1.977-1.978-.92-.38-1.858-.366-2.817.041-1.113.473-1.85 1.295-2.212 2.467-1.095-.554-2.2-.594-3.311-.122-.96.407-1.622 1.073-1.987 1.997-.366.925-.35 1.857.05 2.797a4.714 4.714 0 001.006 1.491c.435.438 1.073.863 1.916 1.275.842.411 1.587.74 2.235.986.647.246 1.675.613 3.082 1.102l1.233.427zm165.382 36.553l.98-.217c1.47-.35 2.545-.629 3.226-.836a10.546 10.546 0 002.099-.917c.717-.405 1.247-.892 1.59-1.462.43-.716.57-1.457.42-2.224a2.534 2.534 0 00-1.233-1.755c-.778-.468-1.62-.526-2.525-.174-.114-.964-.56-1.68-1.338-2.147a2.534 2.534 0 00-2.128-.265c-.748.227-1.338.699-1.768 1.415a4.161 4.161 0 00-.523 1.372c-.094.49-.092 1.103.005 1.837.097.735.206 1.367.326 1.897.12.53.324 1.359.614 2.487l.255.989z" fill="#D30032"/><path fill="#76C3ED" d="M210.721 113.2l-4.121 34.276h-37.058l-4.12-34.378"/><path d="M177.316 147.527c-.854-4.642.86-10.389 8.962-14.413 5.868-2.917 3.52-9.934 3.52-9.934s15.903 4.48 16.973 24.347m3.673-42.232c1.788 0 2.883 2.39 3.71 5.412.823 3.022.55 5-1.238 5h-49.694c-1.788 0-2.06-1.978-1.238-5 .823-3.022 1.922-5.25 3.71-5.25" fill="#F5F5F2"/><path d="M169.155 71.662c-2.281-.91-4.364-3.19-6.708-3.41-2.344-.219-4.257 1.652-6.513 2.158-2.099.47-5.03-.375-7.018.774-1.77 1.021-2.23 3.761-3.864 5.357-1.433 1.4-4.296 1.815-5.586 3.686-1.776 2.569-1.42 6.701-2.467 10.37-.91 3.192-3.408 6.108-3.967 9.754-.575 3.41.817 7.447.42 10.99-.395 3.541-2.66 6.708-3.129 10.127-.512 3.71.718 7.77-.06 10.942-.944 3.84-1.068 9.296-2.758 11.753l.793.554 47.997-71.072c-2.082-1.444-4.966-1.112-7.14-1.983z" fill="#96BF53"/><path d="M188.125 98.595c.377-2.273-1.428-4.743-1.722-6.88-.317-2.31.746-4.787-.262-6.894-1.007-2.105-3.895-3.302-5.522-5.137-1.586-1.763-2.277-4.595-4.343-6.04l-49.82 70.087.793.555c1.872-2.713 7.068-4.847 9.979-7.053 2.678-2.027 6.863-2.393 10.048-4.141 3.051-1.682 5.213-4.858 8.41-6.442 3.198-1.583 7.47-1.568 10.529-3.191 3.26-1.722 5.204-5.026 7.91-6.945 3.062-2.17 7.048-3.226 8.877-5.875 1.294-1.863.68-4.706 1.485-6.546.916-2.095 3.304-3.475 3.638-5.498z" fill="#85B53C"/><path fill="#85B53C" d="M149.281 112.724l-6.967-30.112 4.225 34.085 33.235-7.918z"/><path fill="#85B53C" d="M157.036 101.495l-6.164-26.646 3.737 30.165 29.415-7.009z"/><path fill="#85B53C" d="M165.156 89.74l-5.065-17.79 2.642 21.305 20.774-4.951z"/><g><path d="M134.909 47.9c-2.453-.117-5.165-1.596-7.453-1.04-2.288.556-3.487 2.948-5.456 4.16-1.83 1.129-4.878 1.284-6.384 3.018-1.34 1.541-.882 4.282-1.908 6.323-.9 1.79-3.471 3.114-4.082 5.303-.843 3.007.839 6.799 1.044 10.61.18 3.313-1.234 6.883-.576 10.513.567 3.412 3.197 6.775 3.975 10.253.78 3.478-.331 7.21.339 10.596.723 3.673 3.208 7.113 3.505 10.364.358 3.94-.578 15.062-1.376 17.935l.931.266 24.838-88.75c-2.44-.688-5.058.565-7.397.45z" fill="#96BF53"/><path d="M159.963 73.572c.185-2.279 1.994-4.36 1.65-6.383-.383-2.271-2.893-4.019-3.867-5.944-1.053-2.081-.854-4.768-2.492-6.432-1.638-1.664-4.758-1.855-6.894-3.06-2.073-1.15-3.649-3.604-6.073-4.296l-24.842 88.765.931.267c.886-3.175 5.658-13.163 7.693-16.196 1.872-2.788 5.71-4.497 8.152-7.186 2.338-2.585 3.348-6.29 5.856-8.83 2.508-2.537 6.552-3.914 8.915-6.445 2.522-2.69 3.285-6.446 5.218-9.14 2.19-3.05 5.614-5.347 6.481-8.447.618-2.182-.89-4.67-.727-6.672v-.001z" fill="#85B53C"/><path fill="#85B53C" d="M129.486 93.195l-16.39-26.203 15.091 30.853 28.847-18.308z"/><path fill="#85B53C" d="M133.163 80.054L118.66 56.866l13.354 27.305 25.53-16.203z"/><path fill="#85B53C" d="M137.014 66.295l-10.582-15.172 9.434 19.284 18.031-11.444z"/></g><g><path d="M51.304 147.472c-4.757 0-6.976-6.543-6.976-12.76 0-6.218 2.357-10.105 8.248-13.454 5.894-3.35 38.69-16.295 38.69-16.295s5.55-2.007 20.297.226c14.747 2.23 30.603 12.112 42.656 15.14 12.052 3.03 30.92 5.812 24.1 27.143H51.304z" fill="#FFF"/><path d="M94.29 118.16l.133-.363c.058-.26 1.222-5.644-.424-13.305 2.97-.394 8.536-.626 17.556.74 1.179 7.841.74 16.622.637 18.408-7.527 14.014-21.886 22.646-41.827 23.832H51.304c-3.59 0-5.735-4.128-6.571-8.379 26.854-.794 42.262-7.107 49.557-20.933zm63.5 16.548l.145-.106.023-.23c.25-4.394.263-8.8.035-13.198 11.786 2.553 26.458 6.942 20.322 26.298h-31c4.853-3.556 8.192-8.438 10.475-12.764z" fill="#EF805B"/><path d="M44.37 136.49a24.479 24.479 0 01-.042-1.439c0-6.217 2.357-10.27 8.248-13.624 5.654-3.227 36.297-15.433 38.544-16.322 1.344 6.276.649 10.915.476 11.863-6.817 12.704-21.494 18.81-47.225 19.522zm92.822-5.013l.024-.229c.347-5.764.402-11.832-.165-17.58 6.218 2.766 12.801 4.758 17.168 6.66.242.106.785 0 .785.202.264 4.239.27 8.828.039 13.067a38.636 38.636 0 01-12.54 13.875h-20.035c7.154-3.556 11.703-10.445 14.583-15.9l.141-.095z" fill="#EF805B"/><path d="M115.079 124.655l.023-.225c.036-.51.665-9.954-.49-18.65 6.364 1.395 12.48 3.401 18.745 6.147 1.082 7.719 1.051 16.805.952 18.55-4 7.438-9.939 13.458-17.6 17.014H85.88c16.08-3.575 24.6-14.268 29.055-22.73l.145-.106z" fill="#EF805B"/></g><g><g transform="translate(36.39 107.283)"><ellipse fill="#535CBE" cx="10.933" cy="10.896" rx="10.933" ry="10.896"/><path d="M20.361 8.445c0 .696-.498 1.293-.739 1.904-.25.63-.304 1.407-.785 1.887-.512.51-1.32.57-1.978.81-.657.24-1.303.723-2.024.696-.821-.027-1.574-.591-2.372-.954-.743-.338-1.667-.51-2.292-1.133-.638-.635-.83-1.585-1.178-2.37-.365-.818-.93-1.61-.93-2.476 0-.695.5-1.293.74-1.904.25-.63.305-1.407.785-1.886.55-.547 1.419-.632 2.161-.876.715-.234 1.452-.693 2.253-.613.77.08 1.424.663 2.136 1.014.687.34 1.551.491 2.116 1.054.638.636.83 1.586 1.18 2.37.364.818.927 1.611.927 2.477z" fill="#2B2D7F"/><ellipse fill="#2B39AF" transform="rotate(-45 14.213 7.627)" cx="14.213" cy="7.627" rx="3.696" ry="4.517"/></g><g transform="translate(22.487 123.326)"><ellipse fill="#535CBE" cx="10.933" cy="10.896" rx="10.933" ry="10.896"/><path d="M20.361 8.445c0 .696-.498 1.293-.739 1.904-.25.63-.304 1.407-.785 1.887-.512.51-1.32.57-1.978.81-.657.24-1.303.723-2.024.696-.821-.027-1.574-.591-2.372-.954-.743-.338-1.667-.51-2.292-1.133-.638-.635-.83-1.585-1.178-2.37-.365-.818-.93-1.61-.93-2.476 0-.695.5-1.293.74-1.904.25-.63.305-1.407.785-1.886.55-.547 1.419-.632 2.161-.876.715-.234 1.452-.693 2.253-.613.77.08 1.424.663 2.136 1.014.687.34 1.551.491 2.116 1.054.638.636.83 1.586 1.18 2.37.364.818.927 1.611.927 2.477z" fill="#2B2D7F"/><ellipse fill="#2B39AF" transform="rotate(-45 14.213 7.627)" cx="14.213" cy="7.627" rx="3.696" ry="4.517"/></g><g transform="translate(40.906 119.048)"><ellipse fill="#535CBE" cx="14.864" cy="14.813" rx="14.864" ry="14.813"/><path d="M27.68 11.48c0 .947-.677 1.759-1.004 2.59-.34.856-.414 1.912-1.067 2.564-.697.695-1.796.774-2.69 1.101-.892.327-1.77.983-2.75.947-1.118-.037-2.14-.804-3.226-1.296-1.01-.46-2.266-.694-3.116-1.54-.867-.865-1.127-2.156-1.602-3.223-.495-1.112-1.263-2.19-1.263-3.367 0-.945.679-1.757 1.007-2.588.338-.857.413-1.912 1.066-2.564.747-.744 1.929-.86 2.938-1.19.971-.318 1.973-.942 3.062-.834 1.048.11 1.937.901 2.904 1.379.934.462 2.109.667 2.877 1.433.868.864 1.128 2.155 1.603 3.222.496 1.112 1.262 2.19 1.262 3.367z" fill="#2B2D7F"/><ellipse fill="#2B39AF" transform="rotate(-45 19.322 10.37)" cx="19.322" cy="10.369" rx="5.024" ry="6.14"/></g></g></g></svg>