<svg width="230" height="150" xmlns="http://www.w3.org/2000/svg"><g fill="none"><path d="M54.405 56.175c-3.795 3.908-4.215 9.72-.928 12.938.435.424.924.789 1.452 1.087.703.4.955 1.294.564 2.005-2.072 3.816-1.68 8.142.974 10.747 1.445 1.418 3.371 2.16 5.567 2.15a1.47 1.47 0 011.227.65c.276.408.331.928.147 1.386-1.518 3.837-.888 7.763 1.653 10.254 2.692 2.638 6.958 3.074 10.865 1.107a1.463 1.463 0 011.259-.028c.402.18.703.534.819.962a6.589 6.589 0 001.746 3.053c2.996 2.933 8.254 2.407 11.725-1.173.155-.16.289-.336.426-.51l.139-.172a1.45 1.45 0 011.068-.56 1.47 1.47 0 011.123.405l3.9 3.816-.02.02 2.853-2.976L54.641 55.94c-.079.076-.16.145-.236.234v.001z" fill="#20A357"/><path d="M97.027 76.7c1.852-3.979 1.308-8.253-1.384-10.892-2.53-2.488-6.463-3.023-10.233-1.394-.45.194-.965.15-1.376-.116a1.48 1.48 0 01-.674-1.212 7.91 7.91 0 00-2.277-5.54c-2.654-2.602-6.958-2.885-10.708-.702a1.468 1.468 0 01-1.997-.509 7.073 7.073 0 00-1.123-1.432c-1.562-1.527-3.738-2.262-6.124-2.053a10.672 10.672 0 00-6.49 3.091l46.323 45.395 2.278-2.341-3.9-3.817a1.663 1.663 0 01.18-2.29l.187-.16c.177-.14.346-.29.506-.448 3.472-3.582 3.864-8.887.868-11.824a6.568 6.568 0 00-3.066-1.679 1.472 1.472 0 01-.975-.8c-.19-.4-.19-.865-.002-1.266l-.013-.01V76.7z" fill="#219851"/><path d="M92.379 45.31c-5.408.657-9.363 4.916-8.808 9.499.076.603.229 1.195.452 1.76a1.484 1.484 0 01-.802 1.909c-4 1.671-6.391 5.282-5.949 8.982.24 2.015 1.266 3.816 2.994 5.188a1.482 1.482 0 01-.198 2.442c-3.578 2.036-5.536 5.486-5.111 9.025.45 3.753 3.5 6.784 7.768 7.72.43.095.795.378.995.772.2.394.215.858.04 1.263a6.618 6.618 0 00-.536 3.468c.506 4.176 4.924 7.084 9.868 6.486.218-.03.435-.071.648-.125l.215-.048a1.49 1.49 0 011.18.239c.342.241.569.616.624 1.033l.65 5.43h-.032l4.061-.491-7.74-64.577c-.107.01-.213.013-.32.025h.001z" fill="#20A357"/><path d="M112.743 88.196c3.925-1.928 6.172-5.597 5.722-9.353-.423-3.542-3.143-6.432-7.098-7.544a1.476 1.476 0 01-.993-.962 1.487 1.487 0 01.234-1.366 7.918 7.918 0 001.68-5.753c-.443-3.702-3.626-6.636-7.908-7.297a1.477 1.477 0 01-1.23-1.664 7.064 7.064 0 00.023-1.817c-.253-2.178-1.498-4.12-3.486-5.465a10.68 10.68 0 00-6.99-1.69l7.741 64.577 3.229-.392-.653-5.435a1.653 1.653 0 011.571-1.674h.253c.218 0 .448 0 .668-.036 4.937-.597 8.556-4.48 8.055-8.65a6.635 6.635 0 00-1.339-3.242 1.487 1.487 0 01.526-2.226l-.005-.01v-.001z" fill="#219651"/><path d="M132.85 56.766c-1.454-.58-2.783-2.036-4.278-2.176-1.496-.14-2.715 1.054-4.155 1.377-1.339.3-3.209-.24-4.477.493-1.128.652-1.422 2.4-2.464 3.418-.914.893-2.74 1.157-3.563 2.35-1.134 1.64-.906 4.275-1.574 6.616-.58 2.036-2.173 3.896-2.53 6.221-.367 2.176.521 4.75.268 7.01s-1.698 4.28-1.996 6.46c-.327 2.367.458 4.957-.038 6.98-.603 2.45-3.477 8.963-4.555 10.53l.506.355 33.411-48.37c-1.328-.92-3.168-.71-4.554-1.264h-.001z" fill="#96BF53"/><path d="M142.63 77.452c.585-1.336 2.108-2.216 2.32-3.506.241-1.45-.91-3.026-1.097-4.39-.203-1.473.475-3.053-.167-4.396-.643-1.344-2.485-2.107-3.523-3.277-1.012-1.125-1.452-2.932-2.77-3.853l-33.417 48.377.506.354c1.195-1.73 6.147-6.763 8.004-8.17 1.708-1.293 4.378-1.527 6.41-2.641 1.945-1.074 3.324-3.1 5.364-4.11 2.04-1.01 4.765-1 6.716-2.035 2.08-1.1 3.32-3.206 5.045-4.43 1.954-1.384 4.497-2.058 5.663-3.748.825-1.188.433-3.002.946-4.175z" fill="#85B53C"/><path fill="#85B53C" d="M120.173 82.958L115.73 63.75l2.695 21.742 21.2-5.05z"/><path fill="#85B53C" d="M125.12 75.795L121.188 58.8l2.384 19.24 18.762-4.47z"/><path fill="#85B53C" d="M130.3 68.297l-3.231-11.348 1.685 13.59 13.251-3.158z"/><path d="M126.043 20.499v21.986c0 3.038 2.725 5.502 6.09 5.502h33.806c3.364 0 6.093-2.464 6.093-5.502V20.499c0-3.039-2.73-5.499-6.093-5.499h-33.806c-3.365 0-6.09 2.464-6.09 5.499zm5.092 2.435c0-2.366 2.122-4.28 4.74-4.28h26.32c2.62 0 4.741 1.918 4.741 4.28v17.12c0 2.366-2.122 4.28-4.74 4.28h-26.32c-2.62 0-4.741-1.919-4.741-4.28V22.933v.001z" fill="#787A7A"/><path d="M132.133 15.081h33.806c2.052 0 3.865.921 4.969 2.322a6.694 6.694 0 00-2.057-.33h-33.806c-3.365 0-6.093 2.46-6.093 5.503v21.986c0 1.185.419 2.28 1.124 3.177-2.35-.762-4.033-2.786-4.033-5.173V20.584c0-3.038 2.725-5.503 6.09-5.503z" fill="#787A7A"/><path fill="#CECDCC" d="M126.043 39.88h46.047l10.471 95.072h-66.988z"/><path d="M166.88 56.502c0 2.386-1.092 4.321-2.436 4.321-1.348 0-2.436-1.935-2.436-4.321 0-2.387 1.092-4.322 2.436-4.322 1.344 0 2.435 1.935 2.435 4.322h.001z" fill="#9E9E9E"/><path d="M162.18 54.913c.072 1.454 1.058 2.607 2.264 2.607 1.205 0 2.195-1.153 2.264-2.607.11.493.171 1.027.171 1.589 0 2.386-1.091 4.321-2.435 4.321-1.348 0-2.436-1.935-2.436-4.321 0-.562.057-1.096.171-1.589h.001z" fill="#FFF"/><path d="M157.234 56.502c0 2.386-1.091 4.321-2.435 4.321s-2.436-1.935-2.436-4.321c0-2.387 1.092-4.322 2.436-4.322 1.348 0 2.435 1.935 2.435 4.322z" fill="#9E9E9E"/><path d="M152.534 54.913c.074 1.454 1.06 2.607 2.265 2.607s2.195-1.153 2.264-2.607c.11.493.171 1.027.171 1.589 0 2.386-1.091 4.321-2.435 4.321s-2.436-1.935-2.436-4.321c0-.562.061-1.096.171-1.589z" fill="#FFF"/><path d="M147.594 56.502c0 2.386-1.092 4.321-2.436 4.321-1.344 0-2.436-1.935-2.436-4.321 0-2.387 1.092-4.322 2.436-4.322 1.344 0 2.436 1.935 2.436 4.322z" fill="#9E9E9E"/><path d="M142.893 54.913c.074 1.454 1.06 2.607 2.265 2.607 1.206 0 2.195-1.153 2.269-2.607.11.493.17 1.027.17 1.589 0 2.386-1.09 4.321-2.435 4.321-1.344 0-2.436-1.935-2.436-4.321a7.065 7.065 0 01.167-1.589z" fill="#FFF"/><path d="M137.953 56.502c0 2.386-1.092 4.321-2.436 4.321-1.348 0-2.435-1.935-2.435-4.321 0-2.387 1.091-4.322 2.435-4.322s2.436 1.935 2.436 4.322z" fill="#9E9E9E"/><path d="M133.249 54.913c.073 1.454 1.059 2.607 2.264 2.607 1.206 0 2.191-1.153 2.265-2.607.11.493.17 1.027.17 1.589 0 2.386-1.09 4.321-2.435 4.321-1.348 0-2.436-1.935-2.436-4.321 0-.562.062-1.096.172-1.589z" fill="#FFF"/><path d="M166.88 69.356c0 2.387-1.092 4.322-2.436 4.322-1.348 0-2.436-1.935-2.436-4.322s1.092-4.321 2.436-4.321c1.344 0 2.435 1.934 2.435 4.321h.001z" fill="#9E9E9E"/><path d="M162.18 67.768c.072 1.454 1.058 2.606 2.264 2.606 1.205 0 2.195-1.152 2.264-2.606.11.492.171 1.026.171 1.588 0 2.387-1.091 4.322-2.435 4.322-1.348 0-2.436-1.935-2.436-4.322 0-.562.057-1.096.171-1.588h.001z" fill="#FFF"/><path d="M157.234 69.356c0 2.387-1.091 4.322-2.435 4.322s-2.436-1.935-2.436-4.322 1.092-4.321 2.436-4.321c1.348 0 2.435 1.934 2.435 4.321z" fill="#9E9E9E"/><path d="M152.534 67.768c.074 1.454 1.06 2.606 2.265 2.606s2.195-1.152 2.264-2.606c.11.492.171 1.026.171 1.588 0 2.387-1.091 4.322-2.435 4.322s-2.436-1.935-2.436-4.322c0-.562.061-1.096.171-1.588z" fill="#FFF"/><path d="M147.594 69.356c0 2.387-1.092 4.322-2.436 4.322-1.344 0-2.436-1.935-2.436-4.322s1.092-4.321 2.436-4.321c1.344 0 2.436 1.934 2.436 4.321z" fill="#9E9E9E"/><path d="M142.893 67.768c.074 1.454 1.06 2.606 2.265 2.606 1.206 0 2.195-1.152 2.269-2.606.11.492.17 1.026.17 1.588 0 2.387-1.09 4.322-2.435 4.322-1.344 0-2.436-1.935-2.436-4.322a7.065 7.065 0 01.167-1.588z" fill="#FFF"/><path d="M137.953 69.356c0 2.387-1.092 4.322-2.436 4.322-1.348 0-2.435-1.935-2.435-4.322s1.091-4.321 2.435-4.321 2.436 1.934 2.436 4.321z" fill="#9E9E9E"/><path d="M133.249 67.768c.073 1.454 1.059 2.606 2.264 2.606 1.206 0 2.191-1.152 2.265-2.606.11.492.17 1.026.17 1.588 0 2.387-1.09 4.322-2.435 4.322-1.348 0-2.436-1.935-2.436-4.322 0-.562.062-1.096.172-1.588z" fill="#FFF"/><path d="M166.88 82.21c0 2.387-1.092 4.322-2.436 4.322-1.348 0-2.436-1.935-2.436-4.321 0-2.387 1.092-4.322 2.436-4.322 1.344 0 2.435 1.935 2.435 4.322l.001-.001z" fill="#9E9E9E"/><path d="M162.18 80.622c.072 1.454 1.058 2.607 2.264 2.607 1.205 0 2.195-1.153 2.264-2.607.11.493.171 1.026.171 1.589 0 2.386-1.091 4.321-2.435 4.321-1.348 0-2.436-1.935-2.436-4.321 0-.563.057-1.096.171-1.589h.001z" fill="#FFF"/><path d="M157.234 82.21c0 2.387-1.091 4.322-2.435 4.322s-2.436-1.935-2.436-4.321c0-2.387 1.092-4.322 2.436-4.322 1.348 0 2.435 1.935 2.435 4.322v-.001z" fill="#9E9E9E"/><path d="M152.534 80.622c.074 1.454 1.06 2.607 2.265 2.607s2.195-1.153 2.264-2.607c.11.493.171 1.026.171 1.589 0 2.386-1.091 4.321-2.435 4.321s-2.436-1.935-2.436-4.321c0-.563.061-1.096.171-1.589z" fill="#FFF"/><path d="M147.594 82.21c0 2.387-1.092 4.322-2.436 4.322-1.344 0-2.436-1.935-2.436-4.321 0-2.387 1.092-4.322 2.436-4.322 1.344 0 2.436 1.935 2.436 4.322v-.001z" fill="#9E9E9E"/><path d="M142.893 80.622c.074 1.454 1.06 2.607 2.265 2.607 1.206 0 2.195-1.153 2.269-2.607.11.493.17 1.026.17 1.589 0 2.386-1.09 4.321-2.435 4.321-1.344 0-2.436-1.935-2.436-4.321a7.065 7.065 0 01.167-1.589z" fill="#FFF"/><path d="M137.953 82.21c0 2.387-1.092 4.322-2.436 4.322-1.348 0-2.435-1.935-2.435-4.321 0-2.387 1.091-4.322 2.435-4.322s2.436 1.935 2.436 4.322v-.001z" fill="#9E9E9E"/><path d="M133.249 80.622c.073 1.454 1.059 2.607 2.264 2.607 1.206 0 2.191-1.153 2.265-2.607.11.493.17 1.026.17 1.589 0 2.386-1.09 4.321-2.435 4.321-1.348 0-2.436-1.935-2.436-4.321 0-.563.062-1.096.172-1.589z" fill="#FFF"/><path d="M166.88 95.065c0 2.387-1.092 4.321-2.436 4.321-1.348 0-2.436-1.934-2.436-4.321 0-2.387 1.092-4.321 2.436-4.321 1.344 0 2.435 1.934 2.435 4.321h.001z" fill="#9E9E9E"/><path d="M162.18 93.476c.072 1.455 1.058 2.607 2.264 2.607 1.205 0 2.195-1.152 2.264-2.607.11.493.171 1.027.171 1.589 0 2.387-1.091 4.321-2.435 4.321-1.348 0-2.436-1.934-2.436-4.321 0-.562.057-1.096.171-1.589h.001z" fill="#FFF"/><path d="M157.234 95.065c0 2.387-1.091 4.321-2.435 4.321s-2.436-1.934-2.436-4.321c0-2.387 1.092-4.321 2.436-4.321 1.348 0 2.435 1.934 2.435 4.321z" fill="#9E9E9E"/><path d="M152.534 93.476c.074 1.455 1.06 2.607 2.265 2.607s2.195-1.152 2.264-2.607c.11.493.171 1.027.171 1.589 0 2.387-1.091 4.321-2.435 4.321s-2.436-1.934-2.436-4.321c0-.562.061-1.096.171-1.589z" fill="#FFF"/><path d="M147.594 95.065c0 2.387-1.092 4.321-2.436 4.321-1.344 0-2.436-1.934-2.436-4.321 0-2.387 1.092-4.321 2.436-4.321 1.344 0 2.436 1.934 2.436 4.321z" fill="#9E9E9E"/><path d="M142.893 93.476c.074 1.455 1.06 2.607 2.265 2.607 1.206 0 2.195-1.152 2.269-2.607.11.493.17 1.027.17 1.589 0 2.387-1.09 4.321-2.435 4.321-1.344 0-2.436-1.934-2.436-4.321a7.065 7.065 0 01.167-1.589z" fill="#FFF"/><path d="M137.953 95.065c0 2.387-1.092 4.321-2.436 4.321-1.348 0-2.435-1.934-2.435-4.321 0-2.387 1.091-4.321 2.435-4.321s2.436 1.934 2.436 4.321z" fill="#9E9E9E"/><path d="M133.249 93.476c.073 1.455 1.059 2.607 2.264 2.607 1.206 0 2.191-1.152 2.265-2.607.11.493.17 1.027.17 1.589 0 2.387-1.09 4.321-2.435 4.321-1.348 0-2.436-1.934-2.436-4.321 0-.562.062-1.096.172-1.589z" fill="#FFF"/><path d="M166.88 107.92c0 2.386-1.092 4.32-2.436 4.32-1.348 0-2.436-1.934-2.436-4.32 0-2.387 1.092-4.322 2.436-4.322 1.344 0 2.435 1.935 2.435 4.321l.001.001z" fill="#9E9E9E"/><path d="M162.18 106.33c.072 1.455 1.058 2.608 2.264 2.608 1.205 0 2.195-1.153 2.264-2.607a7.3 7.3 0 01.171 1.588c0 2.387-1.091 4.322-2.435 4.322-1.348 0-2.436-1.935-2.436-4.322 0-.562.057-1.095.171-1.588l.001-.001z" fill="#FFF"/><path d="M157.234 107.92c0 2.386-1.091 4.32-2.435 4.32s-2.436-1.934-2.436-4.32c0-2.387 1.092-4.322 2.436-4.322 1.348 0 2.435 1.935 2.435 4.321v.001z" fill="#9E9E9E"/><path d="M152.534 106.33c.074 1.455 1.06 2.608 2.265 2.608s2.195-1.153 2.264-2.607a7.3 7.3 0 01.171 1.588c0 2.387-1.091 4.322-2.435 4.322s-2.436-1.935-2.436-4.322a7.3 7.3 0 01.171-1.588v-.001z" fill="#FFF"/><path d="M147.594 107.92c0 2.386-1.092 4.32-2.436 4.32-1.344 0-2.436-1.934-2.436-4.32 0-2.387 1.092-4.322 2.436-4.322 1.344 0 2.436 1.935 2.436 4.321v.001z" fill="#9E9E9E"/><path d="M142.893 106.33c.074 1.455 1.06 2.608 2.265 2.608 1.206 0 2.195-1.153 2.269-2.607.11.493.17 1.026.17 1.588 0 2.387-1.09 4.322-2.435 4.322-1.344 0-2.436-1.935-2.436-4.322a7.065 7.065 0 01.167-1.588v-.001z" fill="#FFF"/><path d="M137.953 107.92c0 2.386-1.092 4.32-2.436 4.32-1.348 0-2.435-1.934-2.435-4.32 0-2.387 1.091-4.322 2.435-4.322s2.436 1.935 2.436 4.321v.001z" fill="#9E9E9E"/><path d="M133.249 106.33c.073 1.455 1.059 2.608 2.264 2.608 1.206 0 2.191-1.153 2.265-2.607.11.493.17 1.026.17 1.588 0 2.387-1.09 4.322-2.435 4.322-1.348 0-2.436-1.935-2.436-4.322 0-.562.062-1.095.172-1.588v-.001z" fill="#FFF"/><path d="M166.88 120.774c0 2.387-1.092 4.321-2.436 4.321-1.348 0-2.436-1.934-2.436-4.321 0-2.387 1.092-4.322 2.436-4.322 1.344 0 2.435 1.935 2.435 4.322h.001z" fill="#9E9E9E"/><path d="M162.18 119.185c.072 1.454 1.058 2.607 2.264 2.607 1.205 0 2.195-1.153 2.264-2.607.11.493.171 1.027.171 1.589 0 2.387-1.091 4.321-2.435 4.321-1.348 0-2.436-1.934-2.436-4.321 0-.562.057-1.096.171-1.589h.001z" fill="#FFF"/><path d="M157.234 120.774c0 2.387-1.091 4.321-2.435 4.321s-2.436-1.934-2.436-4.321c0-2.387 1.092-4.322 2.436-4.322 1.348 0 2.435 1.935 2.435 4.322z" fill="#9E9E9E"/><path d="M152.534 119.185c.074 1.454 1.06 2.607 2.265 2.607s2.195-1.153 2.264-2.607c.11.493.171 1.027.171 1.589 0 2.387-1.091 4.321-2.435 4.321s-2.436-1.934-2.436-4.321c0-.562.061-1.096.171-1.589z" fill="#FFF"/><path d="M147.594 120.774c0 2.387-1.092 4.321-2.436 4.321-1.344 0-2.436-1.934-2.436-4.321 0-2.387 1.092-4.322 2.436-4.322 1.344 0 2.436 1.935 2.436 4.322z" fill="#9E9E9E"/><path d="M142.893 119.185c.074 1.454 1.06 2.607 2.265 2.607 1.206 0 2.195-1.153 2.269-2.607.11.493.17 1.027.17 1.589 0 2.387-1.09 4.321-2.435 4.321-1.344 0-2.436-1.934-2.436-4.321a7.065 7.065 0 01.167-1.589z" fill="#FFF"/><path d="M137.953 120.774c0 2.387-1.092 4.321-2.436 4.321-1.348 0-2.435-1.934-2.435-4.321 0-2.387 1.091-4.322 2.435-4.322s2.436 1.935 2.436 4.322z" fill="#9E9E9E"/><path d="M133.249 119.185c.073 1.454 1.059 2.607 2.264 2.607 1.206 0 2.191-1.153 2.265-2.607.11.493.17 1.027.17 1.589 0 2.387-1.09 4.321-2.435 4.321-1.348 0-2.436-1.934-2.436-4.321 0-.562.062-1.096.172-1.589z" fill="#FFF"/><path fill="#484B4C" d="M182.56 134.952h-66.988l-.11 2.159h67.388z"/><path d="M79.64 144.063s-35.802-13.848-35.802-54.985h111.54s3.294 44.395-33.017 54.985H79.64z" fill="#DC5A5A"/><path d="M54.51 117.662v.016c-.095-.004-.184-.012-.278-.012-1.829 0-3.336 1.14-3.556 2.61h-.028c-1.413 12.835-15.84 5.919-15.84 5.919-1.312-.566-2.248-.778-2.916-.737-.118-.004-.237-.017-.355-.017H6.387c-3.528-.004-6.387 2.6-6.387 5.805v3.75c0 3.21 2.86 5.809 6.382 5.809h25.151c.11 0 .22-.008.33-.016.375.016.831-.045 1.39-.204a7.05 7.05 0 001.058-.363c.134-.057.269-.105.415-.17 0 0 14.077-6.746 15.78 5.465 0 .029-.005.053-.005.082 0 1.65 1.605 2.985 3.585 2.985.142 0 .285-.008.423-.02v.016l121.013.008c.053.004.106.004.163.004 1.829 0 3.332-1.136 3.556-2.61h.028c1.414-12.83 15.84-5.914 15.84-5.914 1.312.562 2.249.778 2.917.737.118.008.236.016.354.016h25.15c3.528 0 6.387-2.598 6.387-5.808v-3.755c0-3.206-2.859-5.808-6.386-5.808H198.38c-.11 0-.22.012-.326.016-.375-.016-.83.045-1.389.204-.366.093-.72.215-1.059.366-.134.053-.269.106-.411.171 0 0-14.076 6.745-15.779-5.466.004-.028.008-.053.008-.081 0-1.65-1.605-2.986-3.584-2.986-.02 0-.04 0-.061.004v-.008l-121.27-.008h.001z" fill="#FFD88A"/></g></svg>