<svg width="230" height="150" xmlns="http://www.w3.org/2000/svg"><g fill="none"><path d="M98.667 35.469l-9.295 5.53 2.464-10.37-8.169-6.983 10.774-.899L98.667 13l4.226 9.748 10.774.9-8.17 6.982L107.963 41l-9.295-5.531zm57-.222L149.47 39l1.643-7.037-5.446-4.738 7.183-.61L155.667 20l2.816 6.615 7.184.61-5.446 4.738 1.643 7.036-6.197-3.752zM53.917 61.02l-5.733 3.452 1.52-6.471-5.037-4.357 6.644-.561L53.917 47l2.605 6.083 6.645.56-5.038 4.358 1.52 6.471-5.732-3.452zm12.25-41.39L62.138 22l1.069-4.444-3.54-2.993 4.669-.385L66.167 10l1.83 4.178 4.67.384-3.54 2.994L70.195 22l-4.028-2.37z" fill="#F4D44F"/><path fill="#49CC8E" d="M115.66 140.348l.025.032z"/><path d="M73.873 99.632c-3.93-4.749-4.691-10.75-1.918-15.288 2.595-4.275 7.759-6.39 13.473-5.515a2.077 2.077 0 002.332-2.556 11.063 11.063 0 011.163-8.309c2.71-4.473 8.481-6.39 14.36-4.742a2.077 2.077 0 002.557-1.412 9.785 9.785 0 011.023-2.34 10.8 10.8 0 017.63-4.959 15.07 15.07 0 019.945 1.918c.128.076.268.14.396.217 6.564 3.981 9.178 11.72 5.822 17.256a9.861 9.861 0 01-1.597 1.993 2.07 2.07 0 00-.07 2.902 14.405 14.405 0 013.834 7.67c3.438-.89 7.414-.16 10.916 2.191a2.07 2.07 0 002.857-.543 10.149 10.149 0 011.7-1.917 10.814 10.814 0 018.806-2.301 15.121 15.121 0 018.84 4.947l.306.332c4.978 5.848 5.023 14.015.102 18.214a9.868 9.868 0 01-2.14 1.387 2.07 2.07 0 00-1.03 2.742c2.557 5.547-.498 7.362-4.474 10.75-2.166 1.846-2.844-14.1-5.93-14.316a2.077 2.077 0 00-2.122 2.71c1.783 5.508.53 10.947-3.272 14.194-4.033 3.445-10.073 3.649-15.383.537a2.052 2.052 0 00-1.77-.16 2.09 2.09 0 00-1.24 1.278 9.267 9.267 0 01-2.736 4.09c-4.474 3.835-11.312 11.504-15.856 6.187a9.062 9.062 0 01-.556-.748l-.172-.256a2.064 2.064 0 00-1.451-.882 2.122 2.122 0 00-1.624.46l-5.835 4.985-3.72-4.365-2.97-3.489 5.316 7.1a2.333 2.333 0 00-.038-3.233l-.25-.237c-.223-.217-.46-.44-.638-.677a14.897 14.897 0 01-1.61-2.314 14.367 14.367 0 01-6.743-2.096c-.269-.166-.512-.352-.76-.537l-.25-.185a2.045 2.045 0 00-1.655-.384 2.106 2.106 0 00-1.394.946l-3.975 6.57h.039l-4.934-2.997-3.918-2.378 3.975-6.57a2.326 2.326 0 00-1.054-3.048l-.313-.154a8.027 8.027 0 01-.838-.434c-5.994-3.63-8.39-10.699-5.336-15.748a9.171 9.171 0 013.592-3.361 2.083 2.083 0 001.041-1.432 2.058 2.058 0 00-.453-1.693z" fill="#21A457"/><path d="M73.873 99.632c-3.93-4.749-4.691-10.75-1.918-15.288 2.595-4.275 7.759-6.39 13.473-5.515a2.077 2.077 0 002.332-2.556 11.063 11.063 0 011.163-8.309c2.71-4.473 8.481-6.39 14.36-4.742a2.077 2.077 0 002.557-1.412 9.785 9.785 0 011.023-2.34 10.8 10.8 0 017.63-4.959 15.07 15.07 0 019.945 1.918l-47.28 78.046-3.918-2.377 3.975-6.57a2.326 2.326 0 00-1.054-3.049l-.314-.153a8.027 8.027 0 01-.837-.435c-5.995-3.63-8.391-10.698-5.336-15.747a9.171 9.171 0 013.591-3.362 2.083 2.083 0 001.042-1.431 2.058 2.058 0 00-.434-1.72z" fill="#43BD84"/><path d="M136.096 118.086c.387-1.385.922-3.022 1.576-4.834.217-.594.44-1.202.676-1.828 1.778-4.711 4.176-10.345 6.604-15.785.316-.707.633-1.41.95-2.11a541.145 541.145 0 017.457-15.842l.505-1.01c.344-.69.634-1.251.846-1.648 2.517-4.724 8.667-6.253 13.55-3.374 3.942 2.321 5.787 6.77 4.838 10.769a8.933 8.933 0 01-.764 2.041 7.57 7.57 0 01-.395.703c-1.024 1.602-3.884 5.77-7.51 10.835l-1.252 1.736c-2.88 3.993-6.13 8.396-9.284 12.479l-.67.857c-3.647 4.69-7.117 8.876-9.667 11.408-4.712 4.675-6.915 6.574-8.36 5.724-1.446-.85-.866-3.714.9-10.121z" fill="#F79300"/><path d="M158.496 81.765s-2.463-1.116-3.56-1.853c-.683-.461-2.053-1.208-2.053-1.208l.48-1.02.504-1.011c.169.126 1.451 1.087 1.943 1.743.922 1.222 2.686 3.35 2.686 3.35zm-8.314 16.713s-2.465-1.116-3.56-1.853c-.536-.362-1.341-.81-1.666-.988.317-.707.633-1.41.95-2.11.321.27 1.166 1.037 1.591 1.602.92 1.222 2.685 3.349 2.685 3.349zm-8.248 16.909s-1.937-.874-2.792-1.45a8.703 8.703 0 00-1.47-.685c.217-.594.44-1.202.675-1.829.398.291 1.191.903 1.5 1.31.718.968 2.087 2.654 2.087 2.654z" fill="#000" opacity=".15"/><path d="M165.643 70.577l-.198-4.204 1.14-.008.725 3.936 2.694-4.227 1.033.556-1.857 4.771 3.902-1.687.8 1.146-3.751 2.082c-1.71-.618-3.217-1.117-4.488-2.365z" fill="#85B53C"/><path d="M111.172 118.086c.387-1.385.92-3.022 1.575-4.834.217-.594.44-1.202.676-1.828 1.779-4.711 4.177-10.345 6.604-15.785.317-.707.633-1.41.95-2.11a541.145 541.145 0 017.457-15.842l.505-1.01c.344-.69.634-1.251.847-1.648 2.516-4.724 8.667-6.253 13.55-3.374 3.941 2.321 5.786 6.77 4.837 10.769a8.933 8.933 0 01-.763 2.041c-.12.243-.25.474-.396.703-1.024 1.602-3.884 5.77-7.51 10.835l-1.252 1.736c-2.88 3.993-6.13 8.396-9.284 12.479l-.669.857c-3.648 4.69-7.118 8.876-9.668 11.408-4.712 4.675-6.915 6.574-8.36 5.724-1.445-.85-.866-3.714.9-10.121z" fill="#F79300"/><path d="M133.571 81.765s-2.463-1.116-3.56-1.853c-.683-.461-2.053-1.208-2.053-1.208l.48-1.02.504-1.011c.169.126 1.451 1.087 1.944 1.743.922 1.222 2.685 3.35 2.685 3.35zm-8.314 16.713s-2.465-1.116-3.56-1.853c-.536-.362-1.341-.81-1.665-.988.316-.707.632-1.41.948-2.11.322.27 1.167 1.037 1.592 1.602.92 1.222 2.685 3.349 2.685 3.349zm-8.248 16.909s-1.937-.874-2.792-1.45a8.703 8.703 0 00-1.47-.685c.217-.594.44-1.202.675-1.829.399.291 1.191.903 1.5 1.31.718.968 2.087 2.654 2.087 2.654z" fill="#000" opacity=".15"/><path d="M140.719 70.577l-.199-4.204 1.141-.008.724 3.936 2.694-4.227 1.033.556-1.857 4.771 3.902-1.687.8 1.146-3.751 2.082c-1.71-.618-3.216-1.117-4.487-2.365z" fill="#85B53C"/><path d="M72.79 78.92l.028.013.045-.013c7.207 3.194 21.155 4.673 21.295 4.688l-.217-.013c11.431.01 21.35 7.986 23.87 19.195a26.699 26.699 0 01-3.372 20.228c-4.924 7.976-10.894 12.608-17.75 13.767-8.111 1.372-17.452-2.147-27.722-10.466-22.143-17.949-20.513-31.89-15.244-40.425 4.218-6.832 12.235-9.763 19.067-6.974z" fill="#E03837"/><path d="M70.32 124.637C47.501 106.142 51.745 93.21 55.557 87.035c3.684-5.98 10.694-8.446 16.428-6.111l.014-.022c7.612 3.37 21.944 4.859 21.944 4.859a22.186 22.186 0 0111.754 3.385c10.816 6.757 13.91 21.417 6.916 32.746-6.994 11.328-19.476 21.24-42.293 2.745z" fill="#B71818"/><path d="M67.748 87.028c4.211-.259 7.317 4.027 6.936 9.572l-1.042 15.186c-.383 5.548-3.544 6.544-7.06 2.249l-5.117-6.263c-3.52-4.319-5.243-10.588-3.859-14.045 1.384-3.457 5.928-6.437 10.142-6.699zm20.163 1.075l4.995.745c5.477.82 11.71 5.622 13.916 10.727l2.168 5.02c2.208 5.108.995 12.59-2.707 16.714l-2.236 2.485c-3.703 4.124-9.12 3.659-12.086-1.04l-6.563-10.335c-2.981-4.697-5.845-12.377-6.399-17.16-.554-4.782 3.437-7.961 8.912-7.156z" fill="#DE2A42"/><path d="M83.719 115.128l4.268 6.886c3.397 5.485 2.002 8.03-3.115 5.68-5.117-2.35-8.827-8.336-8.286-13.375.541-5.037 3.736-4.676 7.132.809z" fill="#E03837"/><path fill="#E6E6D8" d="M73.88 139.332h83.198v8.96H73.88z"/><path d="M161.514 106.029H30.498c0 28.555 54.528 38.084 54.528 38.084h60.076s54.527-9.516 54.527-38.071l-38.115-.013z" fill="#F5F5F2"/><path fill="#CECDCC" opacity=".06" d="M73.88 139.332h83.198v8.96H73.88z"/></g></svg>