<svg width="250" height="150" viewBox="0 0 250 126" xmlns="http://www.w3.org/2000/svg"><g transform="translate(23)" fill-rule="nonzero" fill="none"><rect stroke="#FFF" stroke-width="4" fill="#E0EEF5" width="204" height="126" rx="8"/><g transform="translate(22 34)"><path fill="#76C3ED" d="M37.755 11.649L30.872 54.36H11.12L4.237 11.649z"/><path d="M.217 1.35A1.166 1.166 0 011.367 0h39.258a1.166 1.166 0 011.152 1.35l-8.761 54.351c-.091.564-.578.98-1.15.98H10.128a1.166 1.166 0 01-1.15-.98L.217 1.351V1.35zm30.655 53.01l6.883-42.711H4.237L11.12 54.36h19.752z" fill="#FFF"/><ellipse fill="#E8F0F8" cx="27.206" cy="30.221" rx="1.712" ry="1.724"/><circle fill="#E8F0F8" cx="23.652" cy="35.105" r="1"/><ellipse fill="#E8F0F8" cx="23.235" cy="19.286" rx="1.205" ry="1.213"/><circle fill="#E8F0F8" cx="13.729" cy="28.498" r="1"/></g><g transform="translate(80.766 34)"><path fill="#76C3ED" d="M37.755 11.649L30.872 54.36H11.12L4.237 11.649z"/><path d="M.217 1.35A1.166 1.166 0 011.367 0h39.258a1.166 1.166 0 011.152 1.35l-8.761 54.351c-.091.564-.578.98-1.15.98H10.128a1.166 1.166 0 01-1.15-.98L.217 1.351V1.35zm30.655 53.01l6.883-42.711H4.237L11.12 54.36h19.752z" fill="#FFF"/><ellipse fill="#E8F0F8" cx="27.206" cy="30.221" rx="1.712" ry="1.724"/><circle fill="#E8F0F8" cx="25.652" cy="34.105" r="1"/><ellipse fill="#E8F0F8" cx="12.235" cy="22.286" rx="1.205" ry="1.213"/><circle fill="#E8F0F8" cx="15.729" cy="28.498" r="1"/></g><path d="M139.749 35.35a1.166 1.166 0 011.15-1.35h39.258a1.166 1.166 0 011.152 1.35l-8.761 54.351c-.091.564-.578.98-1.15.98H149.66a1.166 1.166 0 01-1.15-.98l-8.761-54.35v-.001z" fill="#FFF"/><circle fill="#3CAAE6" cx="160.422" cy="59.279" r="8.296"/><path d="M163.879 59.28a.203.203 0 01-.203.202h-3.05v3.05a.203.203 0 11-.407 0v-3.05h-3.05a.203.203 0 110-.406h3.05v-3.05a.203.203 0 11.406 0v3.05h3.05c.113 0 .204.09.204.203v.001z" stroke="#FFF" stroke-width=".62" fill="#FFF"/></g></svg>