<svg width="202" height="202" xmlns="http://www.w3.org/2000/svg"><g fill="none" fill-rule="evenodd"><g fill-rule="nonzero"><path d="M189.184 74.622a6.892 6.892 0 002.755-.704 6.923 6.923 0 003.151-9.268l-.018-.03a6.921 6.921 0 002.548-8.93 6.96 6.96 0 00-1.056-1.555 6.915 6.915 0 001.11-7.731 6.96 6.96 0 00-.412-.715l-33.996 16.746c.14.442.302.88.512 1.308a9.067 9.067 0 004.274 4.202 6.899 6.899 0 00.364 5.215 6.918 6.918 0 008.755 3.372 6.922 6.922 0 008.547 1.993 6.9 6.9 0 003.466-3.903z" fill="#198C4D"/><path d="M190.327 42.635a6.959 6.959 0 00-.366-.92 6.921 6.921 0 00-8.663-3.413 6.92 6.92 0 00-8.947-2.574c-.374.184-.72.403-1.045.642a6.92 6.92 0 00-10.77 8.264 6.8 6.8 0 00.507.851 6.923 6.923 0 00-1.488 8.12 6.894 6.894 0 003.708 3.388 9.085 9.085 0 00.001 5.441l33.997-16.746a6.922 6.922 0 00-6.934-3.053z" fill="#44AD6F"/><path d="M152.487 61.872l5.357-2.64c3.725-1.835 6.85-6.196 9.198-10.567l2.755 1.155s-3.584 5.79-2.807 7.367c.777 1.576 3.153.411 6.1-1.04l1.31 2.661c-2.946 1.451-5.237 2.789-4.46 4.365.776 1.576 7.521 2.31 7.521 2.31l-.669 3.025c-4.896-.803-10.14-.796-13.866 1.038l-5.357 2.64-5.082-10.314z" fill="#B6D5A1"/></g><g fill-rule="nonzero"><path d="M62.927 95.89l-11.249-5.16a3.787 3.787 0 01-2.169 1.07c-2.129.285-4.094-1.262-4.388-3.457a4.184 4.184 0 01-.032-.635l-16.863-7.735c-.827 1.858-2.53 3.248-4.648 3.53-3.292.44-6.33-1.952-6.784-5.344a6.299 6.299 0 01.418-3.238l-9.526-4.366c-17.563 39.123 7.111 58.62 7.111 58.62l48.13-33.286z" fill="#F8D15A"/><path d="M41.576 103.933c-2.808.246-5.26-1.588-5.48-4.095-.219-2.507 1.878-4.737 4.686-4.983 2.808-.245 5.262 1.589 5.48 4.094.22 2.506-1.878 4.739-4.686 4.984zM15.71 92.652c-1.906.167-3.571-1.078-3.72-2.779-.149-1.701 1.275-3.216 3.18-3.383 1.905-.167 3.57 1.078 3.72 2.78.149 1.703-1.275 3.216-3.18 3.382zm9.204 15.28c-2.908.255-5.448-1.643-5.676-4.24-.227-2.597 1.946-4.907 4.853-5.161 2.908-.255 5.449 1.643 5.676 4.239.227 2.598-1.946 4.908-4.853 5.162zm-4.993 7.755c-1.56.136-2.924-.882-3.046-2.275-.121-1.393 1.045-2.632 2.605-2.769 1.56-.136 2.924.882 3.046 2.275.121 1.393-1.045 2.632-2.605 2.769z" fill="#F4C150"/><path d="M62.892 95.913l-61.355 5.368c1.513 18.61 13.258 27.894 13.258 27.894l48.097-33.262z" fill="#000" opacity=".04"/></g><g fill-rule="nonzero"><path d="M42.388 69.23c-9.147-6.507-11.848-18.408-6.033-26.585 5.816-8.177 17.947-9.531 27.094-3.026 9.146 6.507 11.847 18.406 6.032 26.585-5.817 8.177-17.947 9.533-27.093 3.026z" fill="#EF923D"/><path d="M20.306 25.184s8.186 6.202 15.922 7.545c0 0 16.67.647 23.182 4.773L38.921 66.136s-4.79-4.29-5.695-13.247c0 0-2.677-8.988-5.265-11.68 0 0-5.438-9.535-10.489-11.996l2.834-4.029z" fill="#EF923D"/><path d="M17.958 26.538c-1.249-.888-1.42-2.786-.385-4.243 1.035-1.454 2.884-1.916 4.132-1.028 1.249.886 1.42 2.786.385 4.243-1.035 1.455-2.884 1.916-4.132 1.028z" fill="#D47535"/><path d="M14.85 30.376c-1.246-.888-1.419-2.787-.383-4.243 1.035-1.454 2.885-1.916 4.133-1.028 1.248.888 1.419 2.787.383 4.243-1.035 1.453-2.885 1.914-4.133 1.028z" fill="#D47535"/><path d="M68.03 68.041L16.906 24.73c-.9.082-1.813.596-2.432 1.468-1.036 1.455-.863 3.353.383 4.242 1.092.777 2.644.52 3.71-.53 4.713 3.145 9.4 11.366 9.4 11.366 2.589 2.691 5.266 11.68 5.266 11.68.036.364.08.72.129 1.068.486 5.72 3.638 11.435 9.032 15.272 8.44 6.003 19.42 5.312 25.636-1.254z" fill="#000" opacity=".06"/></g><g fill-rule="nonzero"><path d="M44.761 184.873l12.995-28.152c1.526.707 3.111.536 3.533-.376.421-.914-.476-2.23-2.006-2.936l.497-1.08c6.761 3.123 8.877 12.935 4.73 21.923-4.146 8.987-12.99 13.742-19.749 10.621z" fill="#97A830"/><path d="M55.748 153.787c-.421.916.475 2.227 2.006 2.934l-12.995 28.15c-6.76-3.12-8.877-12.932-4.731-21.92 4.15-8.986 12.991-13.742 19.75-10.624l-.498 1.08c-1.526-.702-3.109-.531-3.532.38z" fill="#AEC22E"/><path d="M61.289 156.345c-.422.912-2.007 1.085-3.533.376l1.527-3.312c1.53.707 2.427 2.022 2.006 2.936z" fill="#4D5724"/><path d="M55.748 153.787c.423-.911 2.004-1.084 3.535-.378l-1.527 3.312c-1.53-.705-2.43-2.018-2.008-2.934z" fill="#5C6D2B"/><path d="M85.424 179.295l-6.962-30.213c1.641-.376 2.788-1.48 2.562-2.463-.225-.98-1.74-1.469-3.38-1.092l-.267-1.16c7.254-1.67 14.938 4.794 17.16 14.44 2.222 9.643-1.857 18.817-9.113 20.488z" fill="#97A830"/><path d="M75.082 147.986c.225.984 1.74 1.473 3.382 1.094l6.962 30.213c-7.255 1.67-14.938-4.792-17.16-14.438-2.225-9.645 1.858-18.82 9.113-20.49l.267 1.16c-1.643.379-2.79 1.483-2.564 2.46z" fill="#AEC22E"/><path d="M81.026 146.62c.226.981-.92 2.086-2.562 2.462l-.817-3.555c1.639-.379 3.154.11 3.38 1.092z" fill="#4D5724"/><path d="M75.082 147.986c-.226-.98.92-2.082 2.562-2.461l.818 3.555c-1.64.379-3.155-.11-3.38-1.094z" fill="#5C6D2B"/><path d="M32.698 137.884l24.965.383c-.02 1.356.62 2.466 1.432 2.478.812.014 1.485-1.074 1.506-2.432l.958.012c-.091 5.998-6.627 10.756-14.598 10.633-7.967-.12-14.352-5.077-14.263-11.074z" fill="#97A830"/><path d="M59.172 135.835c-.812-.012-1.485 1.074-1.506 2.432l-24.966-.384c.092-5.995 6.628-10.754 14.596-10.632 7.97.12 14.357 5.079 14.263 11.074l-.958-.012c.021-1.356-.619-2.464-1.429-2.478z" fill="#AEC22E"/><path d="M59.095 140.745c-.813-.012-1.453-1.122-1.432-2.478l2.936.046c-.017 1.358-.692 2.446-1.504 2.432z" fill="#4D5724"/><path d="M59.172 135.835c.81.014 1.45 1.122 1.429 2.478l-2.935-.046c.018-1.358.694-2.446 1.506-2.432z" fill="#5C6D2B"/></g><g transform="rotate(113 70.025 121.31)" fill-rule="nonzero"><path d="M22.228.003C12.228-.09.213 18.383.013 40.023c-.145 15.512 11.368 22.924 21.63 23.02 10.263.096 21.91-7.101 22.054-22.614.2-21.64-11.47-40.332-21.469-40.426z" fill="#A3BD2F"/><path d="M22.154 7.85C14.31 7.775 4.883 22.113 4.726 38.907c-.111 12.04 8.922 17.794 16.974 17.868 8.051.073 17.19-5.51 17.302-17.55.156-16.794-9.001-31.303-16.848-31.377z" fill="#DCDD64"/><ellipse fill="#DE7C6B" transform="rotate(-89.467 22.333 36.467)" cx="22.333" cy="36.467" rx="10.821" ry="9.645"/><path d="M21.642 63.045c10.262.095 21.91-7.102 22.053-22.614C43.896 18.789 32.225.097 22.228.005" fill="#000" opacity=".15"/></g><g fill-rule="nonzero"><path d="M123.33 172.805l-.012-.022-.032-.017c-2.534-5.44-9.802-13.29-9.875-13.369l.119.117a18.622 18.622 0 01-5.543-8.58c-1.448-4.77-.927-9.868 1.468-14.35 2.537-4.75 6.829-8.24 12.084-9.837 6.827-2.074 12.581-1.715 17.098 1.068 5.356 3.298 8.943 9.99 10.663 19.891 3.71 21.354-4.222 28.482-11.53 30.7-5.844 1.777-11.919-.579-14.44-5.601z" fill="#DD3A3D"/><path d="M147.684 147.99c3.823 22.002-5.101 27.241-10.389 28.846-5.115 1.553-10.384-.558-12.5-4.768l-.02.006c-2.676-5.745-10.161-13.793-10.161-13.793a16.927 16.927 0 01-5.055-7.823c-2.818-9.282 2.76-19.196 12.458-22.14 9.7-2.944 21.845-2.333 25.667 19.671z" fill="#B31D22"/><path d="M130.292 170.717c-2.55-1.967-2.182-5.97.82-8.94l8.213-8.125c3.002-2.97 5.324-1.956 5.182 2.266l-.205 6.14c-.14 4.221-2.3 8.669-4.824 9.933-2.523 1.263-6.636.694-9.186-1.274zm-11.034-10.748l-2.495-2.934c-2.735-3.218-3.902-9.085-2.608-13.105l1.273-3.95c1.296-4.02 5.745-7.677 9.94-8.167l2.532-.295c4.195-.49 7.073 2.497 6.43 6.67l-1.419 9.188c-.644 4.174-2.853 9.988-4.932 12.987-2.082 3.001-5.986 2.822-8.721-.394zm15.962-13.291l1.006-6.07c.802-4.834 2.88-5.584 4.638-1.674 1.76 3.908.885 9.186-1.954 11.788-2.838 2.6-4.492.789-3.69-4.044z" fill="#DD3A3D"/><path d="M137.773 178.408c-.073.023-.149.036-.221.058l-16.4-51.59c.129-.04.258-.088.388-.127 6.828-2.074 12.582-1.715 17.099 1.068 5.355 3.298 8.942 9.99 10.662 19.891 3.71 21.354-4.222 28.48-11.528 30.7z" fill="#4D4D4D" opacity=".3"/></g><circle stroke="#FAFAF5" stroke-width="6" cx="81.16" cy="131.86" r="15.16"/><path d="M110.08 43.96c19.867-3.141 34.015 2.175 42.116 14.352 6.64 9.981 8.677 24.044 6.642 38.29h0c-4.6 32.236-28.941 52.205-61.726 47.538-33.535-4.813-53.831-31.828-49.322-63.432 1.732-12.193 8.012-25.49 17.19-33.675 11.756-10.485 27.155-12.22 45.1-3.073z" stroke="#FAFAF5" stroke-width="6"/><g transform="translate(50 19)"><path d="M49.02 6.232c9.082 7.828 9.31 22.42 9.31 22.42s-14.478 1.9-23.522-5.966C25.764 14.82 25.46.304 25.46.304s14.478-1.9 23.56 5.928z" fill="#2DA066" fill-rule="nonzero"/><path d="M58.368 33.364l-.304-.038c-1.33-.152-2.318-1.406-2.128-2.736l2.052-16.758c.152-1.33 1.406-2.318 2.736-2.128l.304.038c1.33.152 2.318 1.406 2.128 2.736l-2.052 16.758c-.152 1.33-1.406 2.318-2.736 2.128z" fill="#1D1D1B" fill-rule="nonzero"/><path d="M105.868 77.178c-4.142 29.032-25.764 49.628-58.33 44.992C14.706 117.458-3.382 91.162.76 62.13 3.534 42.598 21.622 8.056 59.584 28.082c41.838-7.144 49.704 25.156 46.284 49.096z" fill="#41CD8C" fill-rule="nonzero"/><path d="M66.69 56.354c5.282 0 9.576 4.294 9.576 9.576 0 5.282-4.294 9.576-9.576 9.576-5.282 0-9.576-4.294-9.576-9.576 0-5.282 4.294-9.576 9.576-9.576zm-49.02-13.68c5.282 0 9.576 4.294 9.576 9.576 0 5.282-4.294 9.576-9.576 9.576-5.282 0-9.576-4.294-9.576-9.576 0-5.282 4.294-9.576 9.576-9.576z" fill="#99E0FF"/><path d="M38.722 40.85c2.166.304 3.382 4.598 2.698 9.576-.684 4.978-3.04 8.778-5.206 8.474-2.166-.304-3.382-4.598-2.698-9.576.684-4.978 3.04-8.778 5.206-8.474zm12.768 4.598c2.166.304 3.382 3.078 2.698 8.056-.684 4.978-3.04 8.778-5.206 8.474-2.166-.304-3.382-4.598-2.698-9.576.722-4.978 3.04-7.258 5.206-6.954z" fill="#000" fill-rule="nonzero"/><path stroke="#000" stroke-width="3.8" stroke-linecap="round" stroke-linejoin="round" d="M50.616 47.424L60.8 46.36"/><path d="M43.32 39.14s-3.8-6.08-13.68-2.66" stroke="#000" stroke-width="3.8" stroke-linecap="round"/><path d="M20.14 91.96s4.56 4.94 2.28 17.86m3.8-5.7s17.86-1.9 30.4-9.12" stroke="#61E6A0" stroke-width="6.08" stroke-linecap="round" stroke-linejoin="round"/><circle fill="#61E6A0" cx="31.16" cy="112.86" r="12.16"/></g></g></svg>